<svg xmlns="http://www.w3.org/2000/svg" width="225.121" height="220.837" viewBox="0 0 225.121 220.837">
  <g id="Group_350" data-name="Group 350" transform="translate(-162.381 -186.178)">
    <g id="Group_349" data-name="Group 349">
      <path id="Path_637" data-name="Path 637" d="M307.862,284.461s85.187-83.145,63.606-97.074S307.862,284.461,307.862,284.461Z" fill="#37b468"/>
      <path id="Path_638" data-name="Path 638" d="M303.757,282.863S398.346,248,386.47,229.771,303.757,282.863,303.757,282.863Z" fill="#37b468"/>
      <path id="Path_639" data-name="Path 639" d="M303.757,282.863S398.346,248,386.47,229.771,303.757,282.863,303.757,282.863Z" fill="#37b468" opacity="0.61" style="mix-blend-mode: multiply;isolation: isolate"/>
    </g>
    <path id="Path_640" data-name="Path 640" d="M298.725,262.966c3.7-3.547,10.241-2.891,15.251,1.527,7.278,6.418,14.742,16.877,14.291,22.576-.755,9.544-157.519,128.369-165.649,119.47C156.444,399.783,272.525,288.056,298.725,262.966Z" fill="#f7562c"/>
    <path id="Path_641" data-name="Path 641" d="M328.267,287.069l0-.058a3.857,3.857,0,0,0-6.4-3.015c-3.679,3.183-7.9,6.718-12.529,10.507a93.346,93.346,0,0,1-9.75-11.341c-1.361,3.544,2.992,10.072,6.214,14.219-4.651,3.766-9.655,7.745-14.9,11.852a93.336,93.336,0,0,1-9.566-11.163c-1.332,3.466,2.8,9.788,6,13.943q-2.834,2.2-5.744,4.441a93.3,93.3,0,0,1-9.825-11.412c-1.359,3.537,2.976,10.048,6.2,14.2-5.669,4.334-11.5,8.728-17.368,13.089a94.115,94.115,0,0,1-9.014-10.613c-1.258,3.276,2.367,9.1,5.468,13.241-4.84,3.575-9.692,7.116-14.49,10.571a93.87,93.87,0,0,1-9.15-10.751c-1.269,3.3,2.425,9.2,5.543,13.339-6.157,4.4-12.192,8.64-17.97,12.6a94.518,94.518,0,0,1-8.64-10.235c-1.2,3.131,2.056,8.592,5.054,12.683-19.494,13.23-35.555,22.927-42.383,24.58-8.823,10.217-13.807,17.25-12.4,18.794C170.748,415.438,327.512,296.613,328.267,287.069Z" fill="#f7562c" opacity="0.52" style="mix-blend-mode: multiply;isolation: isolate"/>
  </g>
</svg>
