<svg xmlns="http://www.w3.org/2000/svg" width="310.006" height="117.294" viewBox="0 0 310.006 117.294">
  <g id="Group_963" data-name="Group 963" transform="translate(-786.585 -306.25)">
    <path id="Path_698" data-name="Path 698" d="M825.979,423.544s-2.76-46.918-22.078-80.036c0,0,30.358,27.6,33.118,70.376,0,0,0-67.616-23.459-107.634,0,0,38.638,44.157,40.018,111.774,0,0-5.468-67.833,18.655-89.8,0,0-11.756,74.625-3.476,92.564,0,0,11.279-27.894,10.469-49.825,0,0,6.09,31.886-2.189,52.585" fill="#37b468"/>
    <path id="Path_699" data-name="Path 699" d="M1042.421,423.544s-2.7-45.872-21.586-78.252c0,0,29.681,26.983,32.379,68.807,0,0,0-66.109-22.935-105.234,0,0,37.776,43.173,39.125,109.282,0,0-5.346-66.321,18.239-87.8,0,0-11.493,72.961-3.4,90.5,0,0,11.028-27.272,10.236-48.714,0,0,5.954,31.175-2.141,51.413" fill="#37b468"/>
    <path id="Path_700" data-name="Path 700" d="M1009.169,423.544s-2.04-34.678-16.319-59.156c0,0,22.438,20.4,24.478,52.016,0,0,0-49.977-17.339-79.555,0,0,28.558,32.638,29.578,82.615,0,0-4.041-50.137,13.789-66.376,0,0-8.689,55.157-2.569,68.416,0,0,8.336-20.617,7.738-36.827,0,0,4.5,23.568-1.619,38.867" fill="#37b468"/>
    <path id="Path_701" data-name="Path 701" d="M817.925,423.544s-1.532-26.049-12.258-44.437c0,0,16.855,15.323,18.387,39.074,0,0,0-37.542-13.024-59.76,0,0,21.452,24.517,22.218,62.058,0,0-3.036-37.661,10.357-49.859,0,0-6.526,41.431-1.929,51.391,0,0,6.262-15.487,5.812-27.663,0,0,3.381,17.7-1.215,29.2" fill="#1b8c00"/>
    <path id="Path_702" data-name="Path 702" d="M941.009,423.544s-2.436-41.418-19.491-70.654c0,0,26.8,24.363,29.237,62.126,0,0,0-59.69-20.709-95.017,0,0,34.108,38.982,35.327,98.672,0,0-4.828-59.882,16.468-79.277,0,0-10.378,65.877-3.069,81.713,0,0,9.957-24.624,9.242-43.984,0,0,5.376,28.148-1.933,46.421" fill="#1b8c00"/>
    <path id="Path_703" data-name="Path 703" d="M1047.92,423.544s-1.278-21.728-10.224-37.065c0,0,14.059,12.781,15.337,32.591,0,0,0-31.313-10.864-49.845,0,0,17.893,20.449,18.532,51.762,0,0-2.532-31.413,8.639-41.587,0,0-5.444,34.558-1.609,42.865,0,0,5.223-12.917,4.848-23.073,0,0,2.82,14.766-1.014,24.352" fill="#1b8c00"/>
    <path id="Path_704" data-name="Path 704" d="M796.433,423.544s-1.231-20.928-9.848-35.7c0,0,13.541,12.31,14.772,31.391,0,0,0-30.16-10.463-48.009,0,0,17.234,19.7,17.849,49.856,0,0-2.439-30.257,8.321-40.057,0,0-5.243,33.286-1.55,41.288,0,0,5.031-12.442,4.669-22.225,0,0,2.717,14.223-.976,23.456" fill="#1b8c00"/>
    <path id="Path_705" data-name="Path 705" d="M877.995,423.544s-1.974-33.551-15.789-57.235c0,0,21.71,19.736,23.683,50.327,0,0,0-48.353-16.775-76.97,0,0,27.63,31.577,28.617,79.93,0,0-3.911-48.508,13.34-64.219,0,0-8.406,53.365-2.485,66.193,0,0,8.065-19.947,7.486-35.63,0,0,4.355,22.8-1.566,37.6" fill="#37b468"/>
    <path id="Path_706" data-name="Path 706" d="M886.6,423.544s-1.28-21.753-10.236-37.107c0,0,14.075,12.795,15.354,32.628,0,0,0-31.349-10.876-49.9,0,0,17.914,20.473,18.554,51.822,0,0-2.536-31.45,8.648-41.636,0,0-5.45,34.6-1.611,42.915,0,0,5.229-12.932,4.854-23.1,0,0,2.823,14.783-1.015,24.38" fill="#1b8c00"/>
  </g>
</svg>
