<svg xmlns="http://www.w3.org/2000/svg" width="111.739" height="113.027" viewBox="0 0 111.739 113.027">
  <g id="Group_959" data-name="Group 959" transform="translate(-345.064 -120.524)">
    <g id="Group_258" data-name="Group 258">
      <path id="Path_511" data-name="Path 511" d="M432.538,172.132c-.009-.683-.687-1.282-1.834-1.76.256-.046.511-.09.77-.141,7.46-1.481,13.217-4.459,12.861-6.651-.179-1.1-1.853-1.789-4.414-2.022l.237-.16c9.809-6.748,16.188-14.5,14.248-17.325s-11.465.363-21.274,7.11l-.235.164c.7-2.475.651-4.286-.309-4.845-1.92-1.117-6.76,3.2-10.811,9.632-.14.224-.272.446-.407.669-.036-1.243-.353-2.09-.988-2.342-1.8-.714-5.425,3.563-8.1,9.553a30.764,30.764,0,0,0-2.442,7.9,1.983,1.983,0,0,0-1.023,1.487,23.771,23.771,0,0,1,1.89,2.747,1.984,1.984,0,0,0,1.755-.423,30.79,30.79,0,0,0,8.255.547c6.547-.352,11.838-2.207,11.816-4.144" fill="#aebf51"/>
      <path id="Path_512" data-name="Path 512" d="M401.368,145.966c.684.013,1.278.695,1.748,1.846.048-.256.093-.511.147-.769,1.531-7.45,4.547-13.188,6.737-12.816,1.1.186,1.776,1.864,1.992,4.427.055-.079.107-.157.162-.236,6.814-9.764,14.612-16.09,17.419-14.131s-.439,11.462-7.252,21.225l-.166.234c2.481-.681,4.29-.621,4.843.342,1.1,1.927-3.24,6.738-9.7,10.746-.225.139-.447.269-.672.4,1.243.044,2.088.367,2.336,1,.7,1.806-3.6,5.4-9.608,8.031a30.756,30.756,0,0,1-7.92,2.388,1.983,1.983,0,0,1-1.494,1.013,23.883,23.883,0,0,0-2.734-1.908,1.979,1.979,0,0,1,.435-1.752,30.787,30.787,0,0,1-.492-8.257c.4-6.547,2.286-11.825,4.223-11.789" fill="#aebf51"/>
      <path id="Path_513" data-name="Path 513" d="M434.666,161.921c-.166-.864-1.163-1.47-2.729-1.814.316-.118.628-.231.946-.355,9.127-3.58,15.753-8.671,14.8-11.371-.477-1.35-2.758-1.847-6.061-1.558.088-.087.176-.171.265-.258,10.906-10.8,17.23-22.091,14.126-25.227s-14.462,3.073-25.369,13.87c-.088.087-.173.174-.26.262.321-3.3-.153-5.587-1.5-6.077-2.691-.98-7.849,5.594-11.521,14.684-.127.317-.243.628-.364.942-.328-1.569-.924-2.572-1.787-2.746-2.447-.5-6.07,5.757-8.093,13.965a39.755,39.755,0,0,0-1.3,10.585,2.56,2.56,0,0,0-.959,2.119c.121.627.676,1.119,1.567,1.475.345.893.832,1.453,1.458,1.58a2.551,2.551,0,0,0,2.128-.937,39.711,39.711,0,0,0,10.6-1.188c8.229-1.939,14.517-5.5,14.047-7.951" fill="#c6d866"/>
    </g>
    <g id="Group_259" data-name="Group 259">
      <path id="Path_514" data-name="Path 514" d="M410.008,169.2c-8.621-8.708-23.453-8-33.129,1.574-14.823,17.33-26.864,34.918-31.684,55.375a5.8,5.8,0,0,0,7.21,7.284c20.505-4.612,38.214-16.475,55.693-31.122,9.676-9.578,10.531-24.4,1.91-33.111" fill="#e38a22"/>
      <path id="Path_515" data-name="Path 515" d="M412.605,172.442c2.593,8.46-.22,18.954-7.982,26.638-18,15.277-36.13,27.9-56.565,33.865a7.551,7.551,0,0,0,4.346.49c20.506-4.613,38.215-16.475,55.693-31.122,8.562-8.474,10.211-21.052,4.508-29.871" fill="#d07a1e"/>
      <path id="Path_516" data-name="Path 516" d="M406.794,166.572c-8.434-2.678-18.955.028-26.718,7.712-15.458,17.85-28.261,35.845-34.435,56.219a7.55,7.55,0,0,1-.447-4.351c4.821-20.457,16.862-38.045,31.685-55.375,8.561-8.475,21.155-10,29.915-4.2" fill="#e5a14b"/>
      <path id="Path_517" data-name="Path 517" d="M391.211,175.609c-.574.568-2.049.01-3.293-1.248s-1.789-2.737-1.215-3.3,2.049-.01,3.294,1.247,1.788,2.738,1.214,3.306" fill="#d07a1e"/>
      <path id="Path_518" data-name="Path 518" d="M399.736,194.272c-.574.568-2.049.01-3.294-1.248s-1.788-2.737-1.214-3.305,2.049-.01,3.293,1.247,1.789,2.738,1.215,3.306" fill="#d07a1e"/>
      <path id="Path_519" data-name="Path 519" d="M405.8,180.295c-.574.568-2.049.01-3.294-1.248s-1.788-2.737-1.214-3.3,2.049-.01,3.294,1.247,1.788,2.738,1.214,3.306" fill="#d07a1e"/>
      <path id="Path_520" data-name="Path 520" d="M382.1,191.7c-.574.568-2.049.01-3.294-1.248s-1.788-2.737-1.214-3.306,2.049-.009,3.294,1.248,1.788,2.738,1.214,3.306" fill="#d07a1e"/>
      <path id="Path_521" data-name="Path 521" d="M383.447,210.4c-.574.568-2.048.01-3.293-1.248s-1.788-2.737-1.214-3.3,2.049-.01,3.293,1.247,1.788,2.738,1.214,3.306" fill="#d07a1e"/>
      <path id="Path_522" data-name="Path 522" d="M369.727,205.893c-.574.569-2.049.01-3.293-1.247s-1.789-2.738-1.215-3.306,2.049-.01,3.294,1.247,1.788,2.738,1.214,3.306" fill="#d07a1e"/>
      <path id="Path_523" data-name="Path 523" d="M372.01,218.251c-.574.568-2.049.01-3.293-1.248s-1.789-2.737-1.214-3.305,2.048-.01,3.293,1.247,1.788,2.737,1.214,3.306" fill="#d07a1e"/>
      <path id="Path_524" data-name="Path 524" d="M362.171,215.937c-.574.568-2.048.01-3.293-1.248s-1.789-2.737-1.214-3.306,2.049-.009,3.293,1.248,1.788,2.738,1.214,3.306" fill="#d07a1e"/>
      <path id="Path_525" data-name="Path 525" d="M357.111,226.074c-.574.568-2.049.01-3.293-1.248s-1.789-2.737-1.214-3.305,2.049-.01,3.293,1.247,1.788,2.738,1.214,3.306" fill="#d07a1e"/>
    </g>
  </g>
</svg>
