<svg xmlns="http://www.w3.org/2000/svg" width="149.797" height="197.416" viewBox="0 0 149.797 197.416">
  <g id="image3" transform="translate(-508.462 -271.821)">
    <path id="Path_395" data-name="Path 395" d="M655.393,463.534c0,3.149-30.356,5.7-67.8,5.7s-67.8-2.554-67.8-5.7,30.355-5.7,67.8-5.7,67.8,2.554,67.8,5.7" fill="#97dbbd"/>
    <path id="Path_747" data-name="Path 747" d="M649.186,377.991s-1.719-29.219-13.75-49.845c0,0,18.906,17.188,20.626,43.829,0,0,0-42.111-14.609-67.033,0,0,24.063,27.5,24.922,69.611,0,0-3.405-42.245,11.618-55.928,0,0-7.321,46.475-2.165,57.647,0,0,7.025-17.372,6.52-31.03,0,0,3.793,19.858-1.364,32.748" transform="translate(-25.433 85.543)" fill="#37b468"/>
    <g id="Group_187" data-name="Group 187">
      <path id="Path_396" data-name="Path 396" d="M625.53,417.727c0,24.614-17.224,44.567-38.47,44.567s-38.469-19.953-38.469-44.567,17.222-44.568,38.469-44.568,38.47,19.954,38.47,44.568" fill="#fff"/>
      <path id="Path_397" data-name="Path 397" d="M587.06,457.614c-20.528,0-37.3-17.589-38.408-39.74-.039.775-.062,1.554-.062,2.34,0,23.24,17.224,42.08,38.47,42.08s38.47-18.84,38.47-42.08c0-.786-.024-1.565-.063-2.34-1.11,22.151-17.879,39.74-38.407,39.74" fill="#ece5e0"/>
      <path id="Path_398" data-name="Path 398" d="M609,426.007c0,14.642-9.584,26.511-21.406,26.511s-21.407-11.869-21.407-26.511,9.584-26.511,21.407-26.511S609,411.365,609,426.007" fill="#fc7453"/>
      <path id="Path_399" data-name="Path 399" d="M587.591,448.716c-11.306,0-20.558-10.856-21.346-24.609-.036.628-.06,1.26-.06,1.9,0,14.642,9.584,26.511,21.406,26.511S609,440.649,609,426.007c0-.64-.024-1.272-.06-1.9-.788,13.753-10.04,24.609-21.346,24.609" fill="#fd643f"/>
      <path id="Path_400" data-name="Path 400" d="M574.713,401.976l-16.68,16.681-26.884-26.885a11.795,11.795,0,1,1,16.679-16.681Z" fill="#fff"/>
      <path id="Path_401" data-name="Path 401" d="M600.314,401.976l16.68,16.681,26.884-26.885A11.795,11.795,0,1,0,627.2,375.091Z" fill="#fff"/>
      <path id="Path_402" data-name="Path 402" d="M541.025,416.027c8.139-3.517,19.249,4.074,24.814,16.956s3.481,26.175-4.659,29.691-19.249-4.075-24.814-16.956-3.48-26.174,4.659-29.691" fill="#fff"/>
      <path id="Path_403" data-name="Path 403" d="M561.211,438.523c2.853,8.192.641,16.409-4.942,18.353s-12.42-3.121-15.274-11.312-.639-16.409,4.943-18.353,12.419,3.121,15.273,11.312" fill="#fc7453"/>
      <path id="Path_404" data-name="Path 404" d="M555.528,454.749c-5.339,1.858-11.823-2.694-14.875-10.259.1.358.218.715.342,1.073,2.853,8.192,9.691,13.256,15.273,11.312s7.795-10.16,4.943-18.353c-.125-.357-.26-.707-.4-1.052,2.309,7.824.055,15.42-5.283,17.279" fill="#fd643f"/>
      <path id="Path_405" data-name="Path 405" d="M633.095,416.027c-8.139-3.517-19.248,4.074-24.814,16.956s-3.48,26.175,4.659,29.691,19.249-4.075,24.814-16.956,3.481-26.174-4.659-29.691" fill="#fff"/>
      <path id="Path_406" data-name="Path 406" d="M612.91,438.523c-2.854,8.192-.641,16.409,4.941,18.353s12.421-3.121,15.274-11.312.64-16.409-4.942-18.353-12.42,3.121-15.273,11.312" fill="#fc7453"/>
      <path id="Path_407" data-name="Path 407" d="M618.593,454.749c5.338,1.858,11.822-2.694,14.874-10.259-.1.358-.217.715-.342,1.073-2.852,8.192-9.691,13.256-15.273,11.312s-7.795-10.16-4.942-18.353c.124-.357.259-.707.4-1.052-2.308,7.824-.055,15.42,5.284,17.279" fill="#fd643f"/>
    </g>
    <g id="Group_203" data-name="Group 203">
      <g id="Group_195" data-name="Group 195">
        <g id="Group_191" data-name="Group 191">
          <g id="Group_190" data-name="Group 190">
            <g id="Group_188" data-name="Group 188">
              <path id="Path_408" data-name="Path 408" d="M576.53,292.559a116.6,116.6,0,0,0-8.846-17.829l-22.5,21.522c.684,2.237,1.472,4.508,2.384,6.8,8.649,21.715,24.579,36.81,31.709,33.969s5.9-22.745-2.747-44.461" fill="#fff"/>
              <path id="Path_409" data-name="Path 409" d="M551.023,302.735a86.957,86.957,0,0,1-3.063-9.14l-2.776,2.657c.684,2.236,1.472,4.507,2.384,6.8,8.648,21.715,24.578,36.81,31.709,33.969.076-.029.145-.073.22-.107-7.962-1.46-20.963-15.318-28.474-34.177" fill="#ece5e0"/>
            </g>
            <g id="Group_189" data-name="Group 189">
              <path id="Path_410" data-name="Path 410" d="M577.533,335.9a.634.634,0,0,0,.18-.033c.576-.2,2.672-2.644,2.4-10.947-.257-7.977-2.574-17.984-6.527-28.177-3.7-9.549-7.293-16.7-12.231-22.89-5.18-6.5-11.2,19.453-7.245,29.648a113.443,113.443,0,0,0,6.8,14.476,75.071,75.071,0,0,0,6.6,9.931c5.18,6.5,8.82,8.068,10.021,7.992" fill="#fc7453"/>
              <path id="Path_411" data-name="Path 411" d="M572.062,328.967c-4.937-6.191-9.7-14.859-13.4-24.408a108.948,108.948,0,0,1-4.985-16.434l-3.495,3.344a114.011,114.011,0,0,0,3.93,12.036c3.7,9.548,8.461,18.216,13.4,24.407,5.18,6.5,8.82,8.069,10.021,7.992a.59.59,0,0,0,.179-.033,1.655,1.655,0,0,0,.637-.6,33.383,33.383,0,0,1-6.287-6.3" fill="#fd643f"/>
            </g>
          </g>
          <path id="Path_412" data-name="Path 412" d="M554.985,306.543c-11.956,13.5-26.072,20.524-31.53,15.69s-.191-19.7,11.765-33.2,26.072-20.524,31.53-15.69.19,19.7-11.765,33.2" fill="#fff"/>
        </g>
        <g id="Group_194" data-name="Group 194">
          <g id="Group_192" data-name="Group 192">
            <path id="Path_413" data-name="Path 413" d="M601.73,296.032a116.728,116.728,0,0,1,10.97-16.607l19.685,24.124c-.953,2.136-2.014,4.293-3.2,6.455-11.251,20.487-28.916,33.509-35.643,29.814s-3.061-23.3,8.19-43.786" fill="#fff"/>
            <path id="Path_414" data-name="Path 414" d="M625.794,309.266a86.791,86.791,0,0,0,4.163-8.693l2.429,2.976q-1.43,3.205-3.2,6.454c-11.251,20.489-28.916,33.511-35.644,29.816-.071-.039-.135-.09-.2-.133,8.081-.471,22.686-12.626,32.458-30.42" fill="#ece5e0"/>
          </g>
          <g id="Group_193" data-name="Group 193">
            <path id="Path_415" data-name="Path 415" d="M595.408,338.926a.692.692,0,0,1-.174-.055c-.547-.269-2.327-2.952-1.041-11.159,1.236-7.885,4.766-17.531,9.941-27.162,4.848-9.02,9.29-15.676,14.951-21.213,5.938-5.81,8.721,20.683,3.547,30.313-4.849,9.021-10.636,17.039-16.3,22.576-5.94,5.81-9.745,6.923-10.928,6.7" fill="#fc7453"/>
            <path id="Path_416" data-name="Path 416" d="M601.691,332.713c5.659-5.537,11.447-13.555,16.3-22.576a108.943,108.943,0,0,0,6.967-15.7l3.057,3.747a113.807,113.807,0,0,1-5.379,11.462c-4.848,9.021-10.635,17.039-16.295,22.576-5.94,5.81-9.746,6.923-10.927,6.7a.689.689,0,0,1-.175-.055,1.647,1.647,0,0,1-.559-.677,33.414,33.414,0,0,0,7.016-5.481" fill="#fd643f"/>
          </g>
          <path id="Path_417" data-name="Path 417" d="M621.394,312.558C631.6,327.424,644.746,336.131,650.756,332s2.61-19.522-7.6-34.388-23.352-23.574-29.363-19.447-2.609,19.523,7.6,34.389" fill="#fff"/>
        </g>
      </g>
      <g id="Group_196" data-name="Group 196">
        <path id="Path_418" data-name="Path 418" d="M631.211,355.073c0,20.572-19.767,37.249-44.15,37.249s-44.152-16.677-44.152-37.249,19.768-37.249,44.152-37.249,44.15,16.677,44.15,37.249" fill="#fff"/>
        <path id="Path_419" data-name="Path 419" d="M587.06,385.876c-23.1,0-42.037-14.965-43.976-34.026a31.847,31.847,0,0,0-.175,3.223c0,20.573,19.767,37.249,44.151,37.249s44.15-16.676,44.15-37.249a32.134,32.134,0,0,0-.174-3.223c-1.939,19.061-20.88,34.026-43.976,34.026" fill="#ece5e0"/>
      </g>
      <g id="Group_202" data-name="Group 202">
        <g id="Group_197" data-name="Group 197">
          <path id="Path_420" data-name="Path 420" d="M586.853,361.271c-2.786-.079-6.406.944-5.633,2.917.911,2.043,3.91,4.625,5.633,4.625s4.722-2.582,5.633-4.625c.772-1.973-2.847-3-5.633-2.917" fill="#574a42"/>
          <path id="Path_421" data-name="Path 421" d="M586.559,363.084c.15.409-.52.922-1.5,1.145s-1.891.072-2.041-.337.52-.921,1.5-1.145,1.89-.071,2.04.337" fill="#fff"/>
          <path id="Path_422" data-name="Path 422" d="M579.452,374.818a8.071,8.071,0,0,1-8.062-8.062.66.66,0,0,1,1.321,0,6.741,6.741,0,1,0,13.482,0,.66.66,0,0,1,1.321,0,8.071,8.071,0,0,1-8.062,8.062" fill="#574a42"/>
          <path id="Path_423" data-name="Path 423" d="M594.255,374.818a8.071,8.071,0,0,1-8.062-8.062.66.66,0,0,1,1.321,0,6.741,6.741,0,1,0,13.482,0,.661.661,0,0,1,1.321,0,8.071,8.071,0,0,1-8.062,8.062" fill="#574a42"/>
          <path id="Path_424" data-name="Path 424" d="M574.188,365.528c.205.437-.568,1.23-1.727,1.771s-2.262.624-2.466.186.569-1.23,1.727-1.77,2.262-.624,2.466-.187" fill="#574a42"/>
          <path id="Path_425" data-name="Path 425" d="M599.518,365.528c-.205.437.568,1.23,1.727,1.771s2.263.624,2.466.186-.568-1.23-1.726-1.77-2.263-.624-2.467-.187" fill="#574a42"/>
        </g>
        <g id="Group_198" data-name="Group 198">
          <path id="Path_426" data-name="Path 426" d="M565.1,365.464c0,1.85-2.189,3.349-4.889,3.349s-4.888-1.5-4.888-3.349,2.188-3.35,4.888-3.35,4.889,1.5,4.889,3.35" fill="#fc7453"/>
          <path id="Path_427" data-name="Path 427" d="M620.932,365.464c0,1.85-2.189,3.349-4.89,3.349s-4.888-1.5-4.888-3.349,2.188-3.35,4.888-3.35,4.89,1.5,4.89,3.35" fill="#fc7453"/>
        </g>
        <g id="Group_201" data-name="Group 201">
          <g id="Group_199" data-name="Group 199">
            <path id="Path_428" data-name="Path 428" d="M605.539,351.69a6.11,6.11,0,0,1,5.9,4.521,6.111,6.111,0,1,0-11.79,0,6.11,6.11,0,0,1,5.9-4.521" fill="#574a42"/>
          </g>
          <g id="Group_200" data-name="Group 200">
            <path id="Path_429" data-name="Path 429" d="M568.582,351.69a6.11,6.11,0,0,0-5.895,4.521,6.11,6.11,0,1,1,11.79,0,6.11,6.11,0,0,0-5.9-4.521" fill="#574a42"/>
          </g>
        </g>
      </g>
    </g>
    <g id="Group_426" data-name="Group 426" transform="translate(37.757 85.543)">
      <path id="Path_778" data-name="Path 778" d="M536.862,390.291s-1.253-21.313-10.03-36.357c0,0,13.791,12.536,15.045,31.969,0,0,0-30.716-10.656-48.895,0,0,17.552,20.059,18.178,50.775,0,0-2.484-30.814,8.474-40.794,0,0-5.34,33.9-1.579,42.048,0,0,5.124-12.671,4.756-22.633,0,0,2.766,14.484-.995,23.887" transform="translate(-21.53 -12.301)" fill="#1b8c00"/>
      <path id="Path_779" data-name="Path 779" d="M629.75,395.861s-1.043-17.733-8.345-30.25c0,0,11.474,10.431,12.517,26.6,0,0,0-25.556-8.866-40.68a71.168,71.168,0,0,1,15.125,42.245s-2.067-25.638,7.051-33.942c0,0-4.443,28.2-1.314,34.985,0,0,4.263-10.542,3.957-18.832,0,0,2.3,12.052-.828,19.875" transform="translate(-57.807 -17.871)" fill="#1b8c00"/>
      <path id="Path_780" data-name="Path 780" d="M484.455,377.991s-1.719-29.219-13.75-49.845c0,0,18.906,17.188,20.625,43.829,0,0,0-42.111-14.609-67.033,0,0,24.063,27.5,24.923,69.611,0,0-3.406-42.245,11.617-55.928,0,0-7.32,46.475-2.164,57.647,0,0,7.024-17.372,6.52-31.03,0,0,3.793,19.858-1.364,32.748" fill="#37b468"/>
      <path id="Path_781" data-name="Path 781" d="M480.123,398.211s-.954-16.223-7.634-27.674c0,0,10.5,9.543,11.452,24.335,0,0,0-23.38-8.111-37.217A65.108,65.108,0,0,1,489.666,396.3s-1.891-23.455,6.45-31.052c0,0-4.065,25.8-1.2,32.006,0,0,3.9-9.645,3.62-17.228,0,0,2.106,11.025-.757,18.182" transform="translate(-0.684 -20.22)" fill="#1b8c00"/>
    </g>
  </g>
</svg>
