<svg xmlns="http://www.w3.org/2000/svg" xmlns:xlink="http://www.w3.org/1999/xlink" width="175.801" height="221.431" viewBox="0 0 175.801 221.431">
  <defs>
    <clipPath id="clip-path">
      <path id="Path_469" data-name="Path 469" d="M572.106,169.806c-.192.061-.381.125-.571.19s-.384.111-.577.17c-13,4.091-20.029,32.687-14.247,51.008,6.452,20.44,19.339,29.986,37.968,24.14.191-.06.38-.124.57-.189s.384-.11.577-.171c18.628-5.845,23.709-21.03,17.257-41.471-5.256-16.654-24.075-34.222-37.222-34.222a12.494,12.494,0,0,0-3.755.545" fill="none"/>
    </clipPath>
  </defs>
  <g id="image2" transform="translate(-499.69 -31.521)">
    <path id="Path_430" data-name="Path 430" d="M635.294,247.249c0,3.15-30.355,5.7-67.8,5.7s-67.8-2.553-67.8-5.7,30.357-5.7,67.8-5.7,67.8,2.553,67.8,5.7" fill="#97dbbd"/>
    <g id="Group_234" data-name="Group 234">
      <g id="Group_205" data-name="Group 205">
        <path id="Path_431" data-name="Path 431" d="M535,225.538c-1.325,8.027-8.724,13.985-16.525,13.307s-13.05-7.736-11.725-15.763,8.725-13.985,16.525-13.307,13.05,7.735,11.725,15.763" fill="#fff"/>
        <path id="Path_432" data-name="Path 432" d="M535,225.538a14.659,14.659,0,0,0-.038-5.007,15.014,15.014,0,0,1-.19,2.559c-1.326,8.028-8.724,13.985-16.525,13.307a12.9,12.9,0,0,1-11.687-10.756,13.019,13.019,0,0,0,11.915,13.2c7.8.678,15.2-5.28,16.525-13.307" fill="#ece5e0"/>
        <path id="Path_433" data-name="Path 433" d="M615.417,203.7c0,24.614-19.645,44.568-43.877,44.568s-43.878-19.954-43.878-44.568,19.645-44.568,43.878-44.568,43.877,19.954,43.877,44.568" fill="#fff"/>
        <path id="Path_434" data-name="Path 434" d="M605.672,211.28a29.8,29.8,0,1,1-29.8-30.265,30.034,30.034,0,0,1,29.8,30.265" fill="#fd643f"/>
        <path id="Path_435" data-name="Path 435" d="M598.439,216.339c0,9.438,4.629,17.089,10.339,17.089s10.339-7.651,10.339-17.089-4.629-17.089-10.339-17.089-10.339,7.651-10.339,17.089" fill="#fff"/>
        <path id="Path_436" data-name="Path 436" d="M588.9,238.145c0,5.536,7.1,10.023,15.862,10.023s15.864-4.487,15.864-10.023-7.1-10.023-15.864-10.023S588.9,232.609,588.9,238.145" fill="#fff"/>
        <path id="Path_437" data-name="Path 437" d="M604.758,246.009c-8.183,0-14.915-3.916-15.768-8.944a6.472,6.472,0,0,0-.094,1.08c0,5.535,7.1,10.023,15.862,10.023s15.863-4.488,15.863-10.023a6.472,6.472,0,0,0-.094-1.08c-.853,5.028-7.585,8.944-15.769,8.944" fill="#ece5e0"/>
        <path id="Path_438" data-name="Path 438" d="M523.156,238.145c0,5.536,7.1,10.023,15.863,10.023s15.864-4.487,15.864-10.023-7.1-10.023-15.864-10.023-15.863,4.487-15.863,10.023" fill="#fff"/>
        <path id="Path_439" data-name="Path 439" d="M539.019,246.009c-8.184,0-14.915-3.916-15.768-8.944a6.472,6.472,0,0,0-.095,1.08c0,5.535,7.1,10.023,15.863,10.023s15.863-4.488,15.863-10.023a6.472,6.472,0,0,0-.094-1.08c-.853,5.028-7.585,8.944-15.769,8.944" fill="#ece5e0"/>
      </g>
      <g id="Group_223" data-name="Group 223">
        <g id="Group_214" data-name="Group 214">
          <g id="Group_212" data-name="Group 212">
            <g id="Group_208" data-name="Group 208">
              <g id="Group_206" data-name="Group 206">
                <path id="Path_440" data-name="Path 440" d="M654.736,110.034C637.065,127.275,615.21,135,609.548,129.2s4.074-24.484,21.745-41.725,36.587-26.515,42.249-20.711-1.134,26.031-18.806,43.273" fill="#fff"/>
                <path id="Path_441" data-name="Path 441" d="M673.542,66.76a5.676,5.676,0,0,0-2.984-1.533c5.252,6.107-1.589,26.012-19.021,43.019C636.189,123.22,617.692,131.01,609.383,129c.056.064.1.135.165.2,5.662,5.8,27.517-1.922,45.188-19.163S679.2,72.563,673.542,66.76" fill="#ece5e0"/>
              </g>
              <g id="Group_207" data-name="Group 207">
                <path id="Path_442" data-name="Path 442" d="M611.711,128.87a.632.632,0,0,1-.159-.109c-.471-.44-1.444-3.7,2.381-11.6,3.673-7.587,10.207-16.249,18.4-24.388,7.674-7.625,15.988-13.946,23.411-17.8,7.788-4.045,11.976-4,13.1-3.409a.683.683,0,0,1,.159.109c.47.44,1.443,3.7-2.381,11.6-3.674,7.588-10.208,16.249-18.4,24.389-7.674,7.624-15.988,13.945-23.41,17.8-7.79,4.044-11.977,4-13.1,3.409" fill="#fc7453"/>
                <path id="Path_443" data-name="Path 443" d="M666.624,83.273c3.824-7.9,2.851-11.156,2.381-11.6a.68.68,0,0,0-.159-.108c-.586-.307-2.01-.461-4.328.027.3,1.453.154,4.769-2.738,10.741-3.673,7.588-10.207,16.249-18.4,24.389-7.674,7.624-15.988,13.945-23.411,17.8a35.32,35.32,0,0,1-8.775,3.382,1.743,1.743,0,0,0,.357.855.66.66,0,0,0,.159.109c1.126.589,5.313.635,13.1-3.409,7.423-3.854,15.737-10.176,23.411-17.8,8.192-8.139,14.726-16.8,18.4-24.388" fill="#fd643f"/>
              </g>
            </g>
            <g id="Group_211" data-name="Group 211">
              <g id="Group_209" data-name="Group 209">
                <path id="Path_444" data-name="Path 444" d="M559.512,76.065c1.267,24.657,12.066,45.167,20.163,44.752s13.634-20.741,12.367-45.4-8.857-44.307-16.954-43.892-16.843,19.882-15.576,44.538" fill="#fff"/>
                <path id="Path_445" data-name="Path 445" d="M575.088,31.527a5.673,5.673,0,0,1,3.232.9c-8,.919-16.495,20.176-15.246,44.5,1.1,21.415,9.39,39.693,16.856,43.859-.085.009-.169.029-.255.033-8.1.416-18.9-20.1-20.163-44.751s7.479-44.122,15.576-44.538" fill="#ece5e0"/>
              </g>
              <g id="Group_210" data-name="Group 210">
                <path id="Path_446" data-name="Path 446" d="M578.31,119.107a.637.637,0,0,0,.189.028c.645,0,3.572-1.735,6.126-10.13,2.456-8.064,3.54-18.859,3.053-30.4-.458-10.807-2.269-21.093-5.1-28.963-2.971-8.257-6.078-11.067-7.3-11.4a.648.648,0,0,0-.191-.028c-.643,0-3.57,1.735-6.125,10.13-2.457,8.064-3.541,18.86-3.052,30.4.456,10.807,2.268,21.093,5.1,28.963,2.973,8.257,6.077,11.067,7.306,11.4" fill="#fc7453"/>
                <path id="Path_447" data-name="Path 447" d="M568.955,48.347c2.556-8.4,5.482-10.126,6.126-10.13a.722.722,0,0,1,.191.028c.638.173,1.787,1.027,3.16,2.959-1.21.862-3.353,3.4-5.286,9.744-2.455,8.065-3.539,18.86-3.05,30.4.457,10.808,2.268,21.094,5.1,28.963a35.322,35.322,0,0,0,4.146,8.441,1.752,1.752,0,0,1-.842.386.7.7,0,0,1-.191-.029c-1.227-.332-4.333-3.141-7.3-11.4-2.832-7.869-4.645-18.155-5.1-28.963-.488-11.538.6-22.334,3.051-30.4" fill="#fd643f"/>
              </g>
            </g>
          </g>
          <g id="Group_213" data-name="Group 213">
            <path id="Path_448" data-name="Path 448" d="M630.97,155.753c-6.89,19.384-31.1,28.479-54.075,20.313s-36.018-30.5-29.128-49.883,31.1-28.479,54.075-20.314,36.017,30.5,29.128,49.884" fill="#fff"/>
            <path id="Path_449" data-name="Path 449" d="M579.053,169.992c-21.762-7.734-34.6-28.177-30.042-46.787a31.718,31.718,0,0,0-1.244,2.978c-6.89,19.385,6.151,41.718,29.128,49.884s47.185-.929,54.075-20.313a31.822,31.822,0,0,0,.914-3.1c-8.21,17.312-31.068,25.068-52.831,17.334" fill="#ece5e0"/>
          </g>
        </g>
        <g id="Group_222" data-name="Group 222">
          <g id="Group_217" data-name="Group 217">
            <g id="Group_215" data-name="Group 215">
              <path id="Path_450" data-name="Path 450" d="M587.1,146.738c-2.6-1.008-6.352-1.255-6.284.862.174,2.231,2.136,5.668,3.759,6.245s5.313-.852,6.856-2.472c1.389-1.6-1.679-3.777-4.331-4.635" fill="#574a42"/>
              <path id="Path_451" data-name="Path 451" d="M586.213,148.349c.005.436-.8.694-1.794.577s-1.806-.565-1.81-1,.8-.694,1.794-.577,1.8.565,1.81,1" fill="#fff"/>
            </g>
            <path id="Path_452" data-name="Path 452" d="M588.9,161.2l-2.392-2.02-1.776-1.929.151-4.267-1.935,2.836-6.39.621-.279,1.681a6.525,6.525,0,0,0,11.8,4.638Z" fill="#574a42"/>
            <path id="Path_453" data-name="Path 453" d="M576.836,161.741a6.5,6.5,0,0,0,8.766,3.115,6.5,6.5,0,0,0-8.766-3.115" fill="#fd643f"/>
            <g id="Group_216" data-name="Group 216">
              <path id="Path_454" data-name="Path 454" d="M575.587,157.025a8.07,8.07,0,0,1-4.9-10.3.66.66,0,0,1,1.244.442,6.741,6.741,0,1,0,12.7,4.515.66.66,0,1,1,1.244.443,8.071,8.071,0,0,1-10.3,4.9" fill="#574a42"/>
              <path id="Path_455" data-name="Path 455" d="M589.535,161.982a8.07,8.07,0,0,1-4.9-10.3.66.66,0,0,1,1.244.442,6.741,6.741,0,1,0,12.7,4.515.66.66,0,1,1,1.244.443,8.07,8.07,0,0,1-10.3,4.9" fill="#574a42"/>
              <path id="Path_456" data-name="Path 456" d="M573.017,147.167c-.152.428-.937.54-1.752.25s-1.354-.872-1.2-1.3.936-.539,1.752-.249,1.354.871,1.2,1.3" fill="#574a42"/>
              <path id="Path_457" data-name="Path 457" d="M601.094,157.146c-.151.428-.937.54-1.752.25s-1.353-.872-1.2-1.3.936-.539,1.753-.249,1.353.871,1.2,1.3" fill="#574a42"/>
            </g>
          </g>
          <g id="Group_218" data-name="Group 218">
            <path id="Path_458" data-name="Path 458" d="M565.2,143.4c-.619,1.743-3.184,2.423-5.728,1.519s-4.1-3.05-3.485-4.793,3.185-2.423,5.729-1.519,4.1,3.05,3.484,4.793" fill="#fd643f"/>
            <path id="Path_459" data-name="Path 459" d="M617.8,162.1c-.619,1.743-3.184,2.423-5.728,1.519s-4.1-3.05-3.484-4.793,3.184-2.423,5.728-1.519,4.1,3.05,3.484,4.793" fill="#fd643f"/>
          </g>
          <g id="Group_221" data-name="Group 221">
            <g id="Group_219" data-name="Group 219">
              <path id="Path_460" data-name="Path 460" d="M571.506,130.535a6.11,6.11,0,0,1,4.019,6.474A6.112,6.112,0,1,0,564.3,133.02a6.108,6.108,0,0,1,7.2-2.485" fill="#574a42"/>
            </g>
            <g id="Group_220" data-name="Group 220">
              <path id="Path_461" data-name="Path 461" d="M609.418,144.009a6.11,6.11,0,0,1,4.019,6.473,6.109,6.109,0,1,0-10.915-5.318,6.151,6.151,0,0,0-.306,1.33,6.108,6.108,0,0,1,7.2-2.485" fill="#574a42"/>
            </g>
          </g>
        </g>
      </g>
      <g id="Group_230" data-name="Group 230">
        <path id="Path_462" data-name="Path 462" d="M572.1,169.807c-.191.06-.381.125-.57.189s-.385.111-.577.171c-13,4.09-20.03,32.687-14.248,51.007,6.453,20.44,19.34,29.987,37.968,24.141.192-.06.381-.125.571-.189s.384-.111.577-.171c18.628-5.846,23.709-21.031,17.257-41.471-5.783-18.321-27.975-37.746-40.978-33.677" fill="#ffc000"/>
        <g id="Group_225" data-name="Group 225">
          <g id="Group_224" data-name="Group 224" clip-path="url(#clip-path)">
            <path id="Path_463" data-name="Path 463" d="M613.658,166.395l-78.723,24.7-.5-1.592,78.723-24.7Z" fill="#fff"/>
            <path id="Path_464" data-name="Path 464" d="M617.4,178.238l-78.724,24.7-.5-1.591,78.723-24.7Z" fill="#fff"/>
            <path id="Path_465" data-name="Path 465" d="M621.136,190.083l-78.723,24.7-.5-1.592,78.723-24.7Z" fill="#fff"/>
            <path id="Path_466" data-name="Path 466" d="M624.874,201.926l-78.723,24.7-.5-1.592,78.724-24.7Z" fill="#fff"/>
            <path id="Path_467" data-name="Path 467" d="M628.612,213.77l-78.723,24.7-.5-1.591,78.723-24.7Z" fill="#fff"/>
            <path id="Path_468" data-name="Path 468" d="M632.352,225.614l-78.724,24.7-.5-1.592,78.723-24.7Z" fill="#fff"/>
          </g>
        </g>
        <g id="Group_227" data-name="Group 227" opacity="0.33">
          <g id="Group_226" data-name="Group 226">
            <path id="Path_470" data-name="Path 470" d="M572.622,197.334c-.792,7.092-4.676,12.4-8.676,11.863s-6.6-6.726-5.807-13.818,4.675-12.4,8.675-11.863,6.6,6.727,5.808,13.818" fill="#fff"/>
          </g>
        </g>
        <g id="Group_229" data-name="Group 229" style="mix-blend-mode: multiply;isolation: isolate">
          <g id="Group_228" data-name="Group 228">
            <path id="Path_471" data-name="Path 471" d="M577.446,169.344c12.173,7.163,24.915,22.5,29.51,37.056,3.949,12.511,4.468,23.289,1.234,31.663,8.185-7.74,9.565-19.781,4.893-34.579-5.049-16-22.608-32.833-35.637-34.14" fill="#e3e3e4"/>
          </g>
        </g>
      </g>
      <g id="Group_233" data-name="Group 233">
        <g id="Group_231" data-name="Group 231">
          <path id="Path_472" data-name="Path 472" d="M601.794,192.668c3.337,7.364,10.252,11.425,15.444,9.072s6.7-10.23,3.359-17.593-10.252-11.427-15.445-9.074-6.7,10.231-3.358,17.6" fill="#fff"/>
          <path id="Path_473" data-name="Path 473" d="M620.6,184.146c-.133-.295-.281-.575-.426-.858,2.834,7.1,1.262,14.449-3.723,16.708s-11.548-1.4-15.018-8.215c.117.3.23.592.364.886,3.337,7.364,10.252,11.426,15.445,9.073s6.7-10.23,3.358-17.594" fill="#ece5e0"/>
        </g>
        <g id="Group_232" data-name="Group 232">
          <path id="Path_474" data-name="Path 474" d="M564.814,196.387c-2.772,7.6-9.361,12.167-14.716,10.212s-7.449-9.7-4.677-17.291,9.362-12.167,14.716-10.212,7.449,9.7,4.677,17.291" fill="#fff"/>
          <path id="Path_475" data-name="Path 475" d="M564.814,196.387a20.124,20.124,0,0,0,1.119-4.88,20.606,20.606,0,0,1-.72,2.46c-2.772,7.594-9.361,12.166-14.716,10.212-4.2-1.533-6.378-6.625-5.795-12.412-1.551,6.741.62,13.089,5.4,14.832,5.355,1.955,11.944-2.617,14.716-10.212" fill="#ece5e0"/>
        </g>
      </g>
    </g>
  </g>
</svg>
