<svg xmlns="http://www.w3.org/2000/svg" width="160.046" height="214.593" viewBox="0 0 160.046 214.593">
  <g id="image1" transform="translate(-296.757 -35.905)">
    <path id="Path_476" data-name="Path 476" d="M448.438,244.795c0,3.15-30.356,5.7-67.8,5.7s-67.8-2.553-67.8-5.7,30.356-5.7,67.8-5.7,67.8,2.554,67.8,5.7" fill="#97dbbd"/>
    <g id="Group_240" data-name="Group 240">
      <g id="Group_236" data-name="Group 236">
        <path id="Path_477" data-name="Path 477" d="M412.894,198.987c0,24.614-14.68,44.568-32.788,44.568s-32.789-19.954-32.789-44.568,14.68-44.568,32.789-44.568,32.788,19.954,32.788,44.568" fill="#fff"/>
        <path id="Path_478" data-name="Path 478" d="M380.106,238.876c-17.5,0-31.79-17.589-32.736-39.74-.034.774-.054,1.554-.054,2.339,0,23.24,14.681,42.081,32.79,42.081s32.788-18.841,32.788-42.081c0-.785-.019-1.565-.053-2.339-.946,22.151-15.239,39.74-32.735,39.74" fill="#ece5e0"/>
      </g>
      <path id="Path_479" data-name="Path 479" d="M363.018,213.885c0,9.438-4.629,17.089-10.339,17.089s-10.339-7.651-10.339-17.089,4.629-17.089,10.339-17.089,10.339,7.651,10.339,17.089" fill="#fff"/>
      <g id="Group_237" data-name="Group 237">
        <path id="Path_480" data-name="Path 480" d="M363.018,235.691c0,5.536-7.1,10.023-15.863,10.023s-15.864-4.487-15.864-10.023,7.1-10.023,15.864-10.023,15.863,4.487,15.863,10.023" fill="#fff"/>
        <path id="Path_481" data-name="Path 481" d="M347.154,243.555c-8.184,0-14.916-3.917-15.769-8.944a6.472,6.472,0,0,0-.094,1.08c0,5.535,7.1,10.023,15.863,10.023s15.863-4.488,15.863-10.023a6.472,6.472,0,0,0-.1-1.08c-.852,5.027-7.585,8.944-15.768,8.944" fill="#ece5e0"/>
      </g>
      <path id="Path_482" data-name="Path 482" d="M398.256,213.885c0,9.438,4.629,17.089,10.339,17.089s10.339-7.651,10.339-17.089S414.3,196.8,408.6,196.8s-10.339,7.651-10.339,17.089" fill="#fff"/>
      <g id="Group_238" data-name="Group 238">
        <path id="Path_483" data-name="Path 483" d="M398.256,235.691c0,5.536,7.1,10.023,15.863,10.023s15.864-4.487,15.864-10.023-7.1-10.023-15.864-10.023-15.863,4.487-15.863,10.023" fill="#fff"/>
        <path id="Path_484" data-name="Path 484" d="M414.119,243.555c-8.184,0-14.916-3.917-15.769-8.944a6.577,6.577,0,0,0-.094,1.08c0,5.535,7.1,10.023,15.863,10.023s15.863-4.488,15.863-10.023a6.472,6.472,0,0,0-.1-1.08c-.853,5.027-7.584,8.944-15.768,8.944" fill="#ece5e0"/>
      </g>
      <g id="Group_239" data-name="Group 239">
        <path id="Path_485" data-name="Path 485" d="M402.043,207.268c0,14.641-9.584,26.51-21.406,26.51s-21.407-11.869-21.407-26.51,9.584-26.51,21.407-26.51,21.406,11.869,21.406,26.51" fill="#fc7453"/>
        <path id="Path_486" data-name="Path 486" d="M380.637,229.977c-11.306,0-20.558-10.856-21.346-24.61-.036.629-.061,1.261-.061,1.9,0,14.641,9.584,26.51,21.407,26.51s21.406-11.869,21.406-26.51c0-.64-.024-1.272-.06-1.9-.788,13.754-10.04,24.61-21.346,24.61" fill="#fd643f"/>
      </g>
    </g>
    <g id="Group_249" data-name="Group 249">
      <g id="Group_247" data-name="Group 247">
        <g id="Group_243" data-name="Group 243">
          <g id="Group_241" data-name="Group 241">
            <path id="Path_487" data-name="Path 487" d="M382.587,74.98c2.794,23.207-3.975,44.083-11.6,45s-16.063-17.151-18.857-40.357,1.119-42.764,8.739-43.682,18.918,15.832,21.713,39.039" fill="#fff"/>
            <path id="Path_488" data-name="Path 488" d="M360.873,35.941A5.379,5.379,0,0,0,358,37.3c7.614-.433,18.642,16.162,21.4,39.053,2.427,20.155-2.361,38.544-8.653,43.634.081,0,.163,0,.244-.01,7.62-.917,14.388-21.793,11.594-45s-14.092-39.955-21.713-39.038" fill="#ece5e0"/>
          </g>
          <g id="Group_242" data-name="Group 242">
            <path id="Path_489" data-name="Path 489" d="M371.99,118.165a.683.683,0,0,1-.174.057c-.6.1-3.611-1.043-7.348-8.463-3.591-7.127-6.342-17.023-7.748-27.866-1.316-10.156-1.285-20.044.089-27.843,1.441-8.182,3.885-11.3,4.976-11.812a.683.683,0,0,1,.174-.057c.6-.1,3.611,1.043,7.348,8.463,3.591,7.127,6.343,17.024,7.747,27.866,1.317,10.156,1.286,20.045-.087,27.843-1.442,8.183-3.886,11.3-4.977,11.812" fill="#fc7453"/>
            <path id="Path_490" data-name="Path 490" d="M369.307,50.644c-3.737-7.42-6.747-8.563-7.348-8.463a.683.683,0,0,0-.174.057c-.567.264-1.5,1.246-2.47,3.27,1.267.609,3.675,2.628,6.5,8.239,3.591,7.126,6.343,17.023,7.748,27.866,1.316,10.156,1.285,20.044-.089,27.842A33.409,33.409,0,0,1,370.969,118a1.655,1.655,0,0,0,.847.224.683.683,0,0,0,.174-.057c1.091-.508,3.535-3.629,4.977-11.812,1.373-7.8,1.4-17.687.088-27.843-1.4-10.843-4.157-20.739-7.748-27.866" fill="#fd643f"/>
          </g>
        </g>
        <g id="Group_246" data-name="Group 246">
          <g id="Group_244" data-name="Group 244">
            <path id="Path_491" data-name="Path 491" d="M342.727,83.687A116.566,116.566,0,0,0,328.766,69.5L314.092,96.963c1.347,1.912,2.8,3.825,4.384,5.717,14.984,17.94,34.825,27.319,40.716,22.4s-1.481-23.452-16.465-41.391" fill="#fff"/>
            <path id="Path_492" data-name="Path 492" d="M321.661,101.3a86.772,86.772,0,0,1-5.758-7.729l-1.811,3.388c1.347,1.912,2.8,3.824,4.384,5.717,14.984,17.939,34.825,27.318,40.716,22.4.062-.052.115-.115.175-.17-8.02,1.093-24.692-8.023-37.706-23.6" fill="#ece5e0"/>
          </g>
          <g id="Group_245" data-name="Group 245">
            <path id="Path_493" data-name="Path 493" d="M357.186,124.561a.671.671,0,0,0,.161-.087c.485-.37,1.714-3.344-1.127-11.151-2.729-7.5-8.05-16.286-14.982-24.741-6.494-7.918-12.134-13.594-18.754-17.938-6.946-4.559-4.579,21.974,2.354,30.428,6.494,7.92,13.716,14.674,20.336,19.018,6.947,4.558,10.895,4.918,12.012,4.471" fill="#fc7453"/>
            <path id="Path_494" data-name="Path 494" d="M349.826,119.674c-6.62-4.344-13.842-11.1-20.336-19.018a108.808,108.808,0,0,1-9.857-14.062l-2.28,4.266a114.035,114.035,0,0,0,7.485,10.212c6.494,7.92,13.716,14.673,20.336,19.018,6.947,4.558,10.895,4.918,12.012,4.471a.637.637,0,0,0,.161-.087,1.656,1.656,0,0,0,.417-.771,33.417,33.417,0,0,1-7.938-4.029" fill="#fd643f"/>
          </g>
          <path id="Path_495" data-name="Path 495" d="M326.612,103.688c-7.154,16.552-18.378,27.627-25.071,24.734s-6.318-18.655.836-35.209,18.379-27.625,25.071-24.733,6.318,18.656-.836,35.208" fill="#fff"/>
        </g>
      </g>
      <g id="Group_248" data-name="Group 248">
        <path id="Path_496" data-name="Path 496" d="M409.9,120.841c7.725,17.879-3.192,39.795-24.384,48.952S340.88,171.878,333.155,154s3.192-39.8,24.384-48.952,44.632-2.086,52.358,15.793" fill="#fff"/>
        <path id="Path_497" data-name="Path 497" d="M383.093,164.19c-20.071,8.673-42.153,2.781-50.995-13.057A30.183,30.183,0,0,0,333.156,154c7.725,17.878,31.167,24.949,52.358,15.793s32.108-31.073,24.384-48.952a30.157,30.157,0,0,0-1.364-2.735c5.474,17.293-5.369,37.412-25.441,46.084" fill="#ece5e0"/>
      </g>
    </g>
    <g id="Group_257" data-name="Group 257">
      <g id="Group_252" data-name="Group 252">
        <g id="Group_250" data-name="Group 250">
          <path id="Path_498" data-name="Path 498" d="M373.674,142.884c-2.451.978-5.212,3.226-3.8,4.65,1.559,1.434,5.135,2.552,6.632,1.9s3.135-4.017,3.158-6.136c-.068-2-3.6-1.534-5.99-.419" fill="#574a42"/>
          <path id="Path_499" data-name="Path 499" d="M374.1,144.571c.284.3-.106,1-.872,1.557s-1.616.773-1.9.473.105-1,.871-1.556,1.616-.773,1.9-.474" fill="#fff"/>
        </g>
        <path id="Path_500" data-name="Path 500" d="M383.128,152.109l-2.431-.293-2.237-.928-2.3-2.245.2,2.553-1.215,3.017-2.3,2c1.374,1.757,4.306,2.262,7.051,1.076,2.614-1.13,4.222-3.432,4.08-5.552Z" fill="#fc7453"/>
        <g id="Group_251" data-name="Group 251">
          <path id="Path_501" data-name="Path 501" d="M372.329,157.438a7.642,7.642,0,0,1-10.033-3.979.625.625,0,1,1,1.147-.5A6.382,6.382,0,1,0,375.16,147.9a.625.625,0,0,1,1.148-.495,7.642,7.642,0,0,1-3.979,10.033" fill="#574a42"/>
          <path id="Path_502" data-name="Path 502" d="M385.193,151.879A7.641,7.641,0,0,1,375.16,147.9a.625.625,0,1,1,1.147-.5,6.382,6.382,0,1,0,11.717-5.063.625.625,0,0,1,1.148-.5,7.641,7.641,0,0,1-3.979,10.033" fill="#574a42"/>
          <path id="Path_503" data-name="Path 503" d="M364.19,152.262c.17.4-.3.978-1.054,1.3s-1.5.269-1.671-.126.3-.977,1.054-1.3,1.5-.27,1.671.125" fill="#574a42"/>
          <path id="Path_504" data-name="Path 504" d="M390.087,141.072c.17.395-.3.978-1.054,1.3s-1.5.269-1.671-.126.3-.978,1.054-1.3,1.5-.27,1.671.125" fill="#574a42"/>
        </g>
      </g>
      <g id="Group_253" data-name="Group 253">
        <path id="Path_505" data-name="Path 505" d="M356.346,154.7c.694,1.607-.645,3.732-2.991,4.747s-4.812.532-5.506-1.076.644-3.733,2.991-4.747,4.811-.532,5.506,1.076" fill="#fc7453"/>
        <path id="Path_506" data-name="Path 506" d="M404.865,133.731c.694,1.607-.645,3.733-2.991,4.747s-4.812.532-5.506-1.076.643-3.733,2.99-4.747,4.812-.532,5.507,1.076" fill="#fc7453"/>
      </g>
      <g id="Group_256" data-name="Group 256">
        <g id="Group_254" data-name="Group 254">
          <path id="Path_507" data-name="Path 507" d="M359,142.366a5.785,5.785,0,1,1-7.605-3.016A5.785,5.785,0,0,1,359,142.366" fill="#574a42"/>
          <path id="Path_508" data-name="Path 508" d="M350.9,144.538a1.648,1.648,0,1,1,2.166.859,1.647,1.647,0,0,1-2.166-.859" fill="#fff"/>
        </g>
        <g id="Group_255" data-name="Group 255">
          <path id="Path_509" data-name="Path 509" d="M383.351,131.846a5.785,5.785,0,1,0,3.016-7.6,5.785,5.785,0,0,0-3.016,7.6" fill="#574a42"/>
          <path id="Path_510" data-name="Path 510" d="M390.486,127.434a1.647,1.647,0,1,0-.859,2.166,1.648,1.648,0,0,0,.859-2.166" fill="#fff"/>
        </g>
      </g>
    </g>
    <g id="Group_260" data-name="Group 260">
      <g id="Group_258" data-name="Group 258">
        <path id="Path_511" data-name="Path 511" d="M432.538,172.132c-.009-.683-.687-1.282-1.834-1.76.256-.046.511-.09.77-.141,7.46-1.481,13.217-4.459,12.861-6.651-.179-1.1-1.853-1.789-4.414-2.022l.237-.16c9.809-6.748,16.188-14.5,14.248-17.325s-11.465.363-21.274,7.11l-.235.164c.7-2.475.651-4.286-.309-4.845-1.92-1.117-6.76,3.2-10.811,9.632-.14.224-.272.446-.407.669-.036-1.243-.353-2.09-.988-2.342-1.8-.714-5.425,3.563-8.1,9.553a30.764,30.764,0,0,0-2.442,7.9,1.983,1.983,0,0,0-1.023,1.487,23.771,23.771,0,0,1,1.89,2.747,1.984,1.984,0,0,0,1.755-.423,30.79,30.79,0,0,0,8.255.547c6.547-.352,11.838-2.207,11.816-4.144" fill="#aebf51"/>
        <path id="Path_512" data-name="Path 512" d="M401.368,145.966c.684.013,1.278.695,1.748,1.846.048-.256.093-.511.147-.769,1.531-7.45,4.547-13.188,6.737-12.816,1.1.186,1.776,1.864,1.992,4.427.055-.079.107-.157.162-.236,6.814-9.764,14.612-16.09,17.419-14.131s-.439,11.462-7.252,21.225l-.166.234c2.481-.681,4.29-.621,4.843.342,1.1,1.927-3.24,6.738-9.7,10.746-.225.139-.447.269-.672.4,1.243.044,2.088.367,2.336,1,.7,1.806-3.6,5.4-9.608,8.031a30.756,30.756,0,0,1-7.92,2.388,1.983,1.983,0,0,1-1.494,1.013,23.883,23.883,0,0,0-2.734-1.908,1.979,1.979,0,0,1,.435-1.752,30.787,30.787,0,0,1-.492-8.257c.4-6.547,2.286-11.825,4.223-11.789" fill="#aebf51"/>
        <path id="Path_513" data-name="Path 513" d="M434.666,161.921c-.166-.864-1.163-1.47-2.729-1.814.316-.118.628-.231.946-.355,9.127-3.58,15.753-8.671,14.8-11.371-.477-1.35-2.758-1.847-6.061-1.558.088-.087.176-.171.265-.258,10.906-10.8,17.23-22.091,14.126-25.227s-14.462,3.073-25.369,13.87c-.088.087-.173.174-.26.262.321-3.3-.153-5.587-1.5-6.077-2.691-.98-7.849,5.594-11.521,14.684-.127.317-.243.628-.364.942-.328-1.569-.924-2.572-1.787-2.746-2.447-.5-6.07,5.757-8.093,13.965a39.755,39.755,0,0,0-1.3,10.585,2.56,2.56,0,0,0-.959,2.119c.121.627.676,1.119,1.567,1.475.345.893.832,1.453,1.458,1.58a2.551,2.551,0,0,0,2.128-.937,39.711,39.711,0,0,0,10.6-1.188c8.229-1.939,14.517-5.5,14.047-7.951" fill="#c6d866"/>
      </g>
      <g id="Group_259" data-name="Group 259">
        <path id="Path_514" data-name="Path 514" d="M410.008,169.2c-8.621-8.708-23.453-8-33.129,1.574-14.823,17.33-26.864,34.918-31.684,55.375a5.8,5.8,0,0,0,7.21,7.284c20.505-4.612,38.214-16.475,55.693-31.122,9.676-9.578,10.531-24.4,1.91-33.111" fill="#e38a22"/>
        <path id="Path_515" data-name="Path 515" d="M412.605,172.442c2.593,8.46-.22,18.954-7.982,26.638-18,15.277-36.13,27.9-56.565,33.865a7.551,7.551,0,0,0,4.346.49c20.506-4.613,38.215-16.475,55.693-31.122,8.562-8.474,10.211-21.052,4.508-29.871" fill="#d07a1e"/>
        <path id="Path_516" data-name="Path 516" d="M406.794,166.572c-8.434-2.678-18.955.028-26.718,7.712-15.458,17.85-28.261,35.845-34.435,56.219a7.55,7.55,0,0,1-.447-4.351c4.821-20.457,16.862-38.045,31.685-55.375,8.561-8.475,21.155-10,29.915-4.2" fill="#e5a14b"/>
        <path id="Path_517" data-name="Path 517" d="M391.211,175.609c-.574.568-2.049.01-3.293-1.248s-1.789-2.737-1.215-3.3,2.049-.01,3.294,1.247,1.788,2.738,1.214,3.306" fill="#d07a1e"/>
        <path id="Path_518" data-name="Path 518" d="M399.736,194.272c-.574.568-2.049.01-3.294-1.248s-1.788-2.737-1.214-3.305,2.049-.01,3.293,1.247,1.789,2.738,1.215,3.306" fill="#d07a1e"/>
        <path id="Path_519" data-name="Path 519" d="M405.8,180.295c-.574.568-2.049.01-3.294-1.248s-1.788-2.737-1.214-3.3,2.049-.01,3.294,1.247,1.788,2.738,1.214,3.306" fill="#d07a1e"/>
        <path id="Path_520" data-name="Path 520" d="M382.1,191.7c-.574.568-2.049.01-3.294-1.248s-1.788-2.737-1.214-3.306,2.049-.009,3.294,1.248,1.788,2.738,1.214,3.306" fill="#d07a1e"/>
        <path id="Path_521" data-name="Path 521" d="M383.447,210.4c-.574.568-2.048.01-3.293-1.248s-1.788-2.737-1.214-3.3,2.049-.01,3.293,1.247,1.788,2.738,1.214,3.306" fill="#d07a1e"/>
        <path id="Path_522" data-name="Path 522" d="M369.727,205.893c-.574.569-2.049.01-3.293-1.247s-1.789-2.738-1.215-3.306,2.049-.01,3.294,1.247,1.788,2.738,1.214,3.306" fill="#d07a1e"/>
        <path id="Path_523" data-name="Path 523" d="M372.01,218.251c-.574.568-2.049.01-3.293-1.248s-1.789-2.737-1.214-3.305,2.048-.01,3.293,1.247,1.788,2.737,1.214,3.306" fill="#d07a1e"/>
        <path id="Path_524" data-name="Path 524" d="M362.171,215.937c-.574.568-2.048.01-3.293-1.248s-1.789-2.737-1.214-3.306,2.049-.009,3.293,1.248,1.788,2.738,1.214,3.306" fill="#d07a1e"/>
        <path id="Path_525" data-name="Path 525" d="M357.111,226.074c-.574.568-2.049.01-3.293-1.248s-1.789-2.737-1.214-3.305,2.049-.01,3.293,1.247,1.788,2.738,1.214,3.306" fill="#d07a1e"/>
      </g>
    </g>
    <g id="Group_261" data-name="Group 261">
      <path id="Path_526" data-name="Path 526" d="M405.175,193.113c2.474,7.7,8.879,12.523,14.307,10.779s7.821-9.4,5.348-17.1-8.879-12.523-14.306-10.779-7.822,9.4-5.349,17.1" fill="#fff"/>
      <path id="Path_527" data-name="Path 527" d="M424.83,186.8c-.1-.308-.215-.6-.326-.9,2,7.377-.4,14.5-5.609,16.173s-11.312-2.715-13.98-9.878c.083.307.161.614.26.922,2.473,7.7,8.879,12.523,14.306,10.779s7.822-9.4,5.349-17.1" fill="#ece5e0"/>
    </g>
    <g id="Group_262" data-name="Group 262">
      <path id="Path_528" data-name="Path 528" d="M364.519,183.706c2.575,7.664.281,15.349-5.123,17.164s-11.872-2.926-14.447-10.59-.281-15.349,5.124-17.164,11.871,2.926,14.446,10.59" fill="#fff"/>
      <path id="Path_529" data-name="Path 529" d="M364.519,183.706a20.086,20.086,0,0,0-2.172-4.511,20.847,20.847,0,0,1,.973,2.37c2.574,7.664.281,15.349-5.123,17.164-4.237,1.423-9.119-1.194-12.275-6.079,2.995,6.234,8.654,9.839,13.474,8.22,5.4-1.815,7.7-9.5,5.123-17.164" fill="#ece5e0"/>
    </g>
  </g>
</svg>
