<svg xmlns="http://www.w3.org/2000/svg" xmlns:xlink="http://www.w3.org/1999/xlink" width="143.688" height="198.818" viewBox="0 0 143.688 198.818">
  <defs>
    <clipPath id="clip-path">
      <path id="Path_583" data-name="Path 583" d="M313.415,413.98v39.467a13.109,13.109,0,0,0,13.109,13.108H427.036a13.109,13.109,0,0,0,13.108-13.108V413.98Z" fill="none"/>
    </clipPath>
  </defs>
  <g id="image4" transform="translate(-304.936 -271.969)">
    <path id="Path_530" data-name="Path 530" d="M448.624,465.244c0,3.062-32.166,5.543-71.844,5.543s-71.844-2.481-71.844-5.543S337.1,459.7,376.78,459.7s71.844,2.481,71.844,5.542" fill="#97dbbd"/>
    <g id="Group_335" data-name="Group 335">
      <g id="Group_264" data-name="Group 264">
        <path id="Path_531" data-name="Path 531" d="M406.6,426.361c0,22.384-13.35,40.53-29.817,40.53s-29.819-18.146-29.819-40.53,13.35-40.53,29.819-40.53,29.817,18.145,29.817,40.53" fill="#fff"/>
        <path id="Path_532" data-name="Path 532" d="M376.78,462.636c-15.912,0-28.91-15.995-29.771-36.14-.03.7-.048,1.413-.048,2.128,0,21.134,13.35,38.268,29.819,38.268S406.6,449.758,406.6,428.624c0-.715-.017-1.424-.047-2.128-.861,20.145-13.859,36.14-29.77,36.14" fill="#ece5e0"/>
        <path id="Path_533" data-name="Path 533" d="M361.239,439.909c0,8.583-4.209,15.541-9.4,15.541s-9.4-6.958-9.4-15.541,4.209-15.541,9.4-15.541,9.4,6.958,9.4,15.541" fill="#fff"/>
        <path id="Path_534" data-name="Path 534" d="M393.285,439.909c0,8.583,4.209,15.541,9.4,15.541s9.4-6.958,9.4-15.541-4.209-15.541-9.4-15.541-9.4,6.958-9.4,15.541" fill="#fff"/>
        <path id="Path_535" data-name="Path 535" d="M396.729,433.892c0,13.314-8.716,24.108-19.467,24.108s-19.468-10.794-19.468-24.108,8.716-24.108,19.468-24.108,19.467,10.794,19.467,24.108" fill="#e9c0c0"/>
        <path id="Path_536" data-name="Path 536" d="M377.263,454.543c-10.282,0-18.7-9.873-19.412-22.38-.033.571-.055,1.147-.055,1.729,0,13.314,8.715,24.108,19.467,24.108s19.467-10.794,19.467-24.108c0-.582-.023-1.158-.056-1.729-.716,12.507-9.13,22.38-19.411,22.38" fill="#e7a2a1"/>
      </g>
      <g id="Group_315" data-name="Group 315">
        <g id="Group_269" data-name="Group 269">
          <path id="Path_537" data-name="Path 537" d="M441.373,413.98H312.187a6.226,6.226,0,0,1-6.227-6.227v-.3a6.226,6.226,0,0,1,6.227-6.227H441.373a6.226,6.226,0,0,1,6.227,6.227v.3a6.227,6.227,0,0,1-6.227,6.227" fill="#ffc000"/>
          <g id="Group_266" data-name="Group 266" opacity="0.33">
            <g id="Group_265" data-name="Group 265">
              <path id="Path_538" data-name="Path 538" d="M312.336,403.713H441.224a6.378,6.378,0,0,1,6.253,5.134,6.451,6.451,0,0,0,.123-1.243,6.376,6.376,0,0,0-6.376-6.375H312.336a6.372,6.372,0,0,0-6.252,7.618,6.375,6.375,0,0,1,6.252-5.134" fill="#c19999"/>
            </g>
          </g>
          <g id="Group_268" data-name="Group 268" style="mix-blend-mode: multiply;isolation: isolate">
            <g id="Group_267" data-name="Group 267">
              <path id="Path_539" data-name="Path 539" d="M312.336,411.495H441.224a6.378,6.378,0,0,0,6.253-5.134,6.449,6.449,0,0,1,.123,1.242,6.376,6.376,0,0,1-6.376,6.376H312.336a6.372,6.372,0,0,1-6.252-7.618,6.375,6.375,0,0,0,6.252,5.134" fill="#e3e3e4"/>
            </g>
          </g>
        </g>
        <g id="Group_314" data-name="Group 314">
          <path id="Path_540" data-name="Path 540" d="M427.036,466.555H326.524a13.109,13.109,0,0,1-13.109-13.108V413.98H440.144v39.467a13.108,13.108,0,0,1-13.108,13.108" fill="#ffc000"/>
          <rect id="Rectangle_9" data-name="Rectangle 9" width="126.729" height="3.924" transform="translate(313.416 413.979)" fill="#ffd24a"/>
          <g id="Group_313" data-name="Group 313">
            <g id="Group_312" data-name="Group 312" clip-path="url(#clip-path)">
              <g id="Group_271" data-name="Group 271" style="mix-blend-mode: multiply;isolation: isolate">
                <g id="Group_270" data-name="Group 270">
                  <line id="Line_1" data-name="Line 1" x1="7.473" y2="7.473" transform="translate(320.1 422.527)" fill="#ebc247"/>
                  <path id="Path_541" data-name="Path 541" d="M320.1,431.107a1.107,1.107,0,0,1-.783-1.89l7.473-7.473a1.107,1.107,0,0,1,1.566,1.565l-7.473,7.474a1.106,1.106,0,0,1-.783.324" fill="#c95e44"/>
                  <line id="Line_2" data-name="Line 2" x2="7.473" y2="7.473" transform="translate(320.1 422.527)" fill="#ebc247"/>
                  <path id="Path_542" data-name="Path 542" d="M327.573,431.107a1.106,1.106,0,0,1-.783-.324l-7.473-7.474a1.107,1.107,0,1,1,1.566-1.565l7.473,7.473a1.107,1.107,0,0,1-.783,1.89" fill="#c95e44"/>
                </g>
              </g>
              <g id="Group_273" data-name="Group 273" style="mix-blend-mode: multiply;isolation: isolate">
                <g id="Group_272" data-name="Group 272">
                  <line id="Line_3" data-name="Line 3" x1="7.473" y2="7.473" transform="translate(339.92 422.527)" fill="#ebc247"/>
                  <path id="Path_543" data-name="Path 543" d="M339.919,431.107a1.107,1.107,0,0,1-.783-1.89l7.473-7.473a1.107,1.107,0,0,1,1.566,1.565l-7.473,7.474a1.1,1.1,0,0,1-.783.324" fill="#c95e44"/>
                  <line id="Line_4" data-name="Line 4" x2="7.473" y2="7.473" transform="translate(339.92 422.527)" fill="#ebc247"/>
                  <path id="Path_544" data-name="Path 544" d="M347.393,431.107a1.106,1.106,0,0,1-.783-.324l-7.473-7.474a1.107,1.107,0,1,1,1.566-1.565l7.473,7.473a1.107,1.107,0,0,1-.783,1.89" fill="#c95e44"/>
                </g>
              </g>
              <g id="Group_275" data-name="Group 275" style="mix-blend-mode: multiply;isolation: isolate">
                <g id="Group_274" data-name="Group 274">
                  <line id="Line_5" data-name="Line 5" x1="7.473" y2="7.473" transform="translate(359.74 422.527)" fill="#ebc247"/>
                  <path id="Path_545" data-name="Path 545" d="M359.739,431.107a1.107,1.107,0,0,1-.783-1.89l7.473-7.473a1.107,1.107,0,0,1,1.566,1.565l-7.473,7.474a1.1,1.1,0,0,1-.783.324" fill="#c95e44"/>
                  <line id="Line_6" data-name="Line 6" x2="7.473" y2="7.473" transform="translate(359.74 422.527)" fill="#ebc247"/>
                  <path id="Path_546" data-name="Path 546" d="M367.212,431.107a1.106,1.106,0,0,1-.783-.324l-7.473-7.474a1.107,1.107,0,1,1,1.566-1.565l7.473,7.473a1.107,1.107,0,0,1-.783,1.89" fill="#c95e44"/>
                </g>
              </g>
              <g id="Group_277" data-name="Group 277" style="mix-blend-mode: multiply;isolation: isolate">
                <g id="Group_276" data-name="Group 276">
                  <line id="Line_7" data-name="Line 7" x1="7.473" y2="7.473" transform="translate(379.559 422.527)" fill="#ebc247"/>
                  <path id="Path_547" data-name="Path 547" d="M379.56,431.107a1.107,1.107,0,0,1-.783-1.89l7.473-7.473a1.107,1.107,0,0,1,1.566,1.565l-7.474,7.474a1.1,1.1,0,0,1-.782.324" fill="#c95e44"/>
                  <line id="Line_8" data-name="Line 8" x2="7.473" y2="7.473" transform="translate(379.56 422.527)" fill="#ebc247"/>
                  <path id="Path_548" data-name="Path 548" d="M387.032,431.107a1.1,1.1,0,0,1-.782-.324l-7.474-7.474a1.107,1.107,0,1,1,1.566-1.565l7.473,7.473a1.107,1.107,0,0,1-.783,1.89" fill="#c95e44"/>
                </g>
              </g>
              <g id="Group_279" data-name="Group 279" style="mix-blend-mode: multiply;isolation: isolate">
                <g id="Group_278" data-name="Group 278">
                  <line id="Line_9" data-name="Line 9" x1="7.473" y2="7.473" transform="translate(399.379 422.527)" fill="#ebc247"/>
                  <path id="Path_549" data-name="Path 549" d="M399.379,431.107a1.107,1.107,0,0,1-.782-1.89l7.472-7.473a1.107,1.107,0,0,1,1.566,1.565l-7.473,7.474a1.1,1.1,0,0,1-.783.324" fill="#c95e44"/>
                  <line id="Line_10" data-name="Line 10" x2="7.473" y2="7.473" transform="translate(399.38 422.527)" fill="#ebc247"/>
                  <path id="Path_550" data-name="Path 550" d="M406.852,431.107a1.106,1.106,0,0,1-.783-.324l-7.473-7.474a1.107,1.107,0,0,1,1.566-1.565l7.472,7.473a1.107,1.107,0,0,1-.782,1.89" fill="#c95e44"/>
                </g>
              </g>
              <g id="Group_281" data-name="Group 281" style="mix-blend-mode: multiply;isolation: isolate">
                <g id="Group_280" data-name="Group 280">
                  <line id="Line_11" data-name="Line 11" x1="7.474" y2="7.473" transform="translate(419.199 422.527)" fill="#ebc247"/>
                  <path id="Path_551" data-name="Path 551" d="M419.2,431.107a1.107,1.107,0,0,1-.783-1.89l7.473-7.473a1.107,1.107,0,0,1,1.566,1.565l-7.473,7.474a1.106,1.106,0,0,1-.783.324" fill="#c95e44"/>
                  <line id="Line_12" data-name="Line 12" x2="7.474" y2="7.473" transform="translate(419.199 422.527)" fill="#ebc247"/>
                  <path id="Path_552" data-name="Path 552" d="M426.672,431.107a1.1,1.1,0,0,1-.782-.324l-7.474-7.474a1.107,1.107,0,0,1,1.567-1.565l7.472,7.473a1.107,1.107,0,0,1-.783,1.89" fill="#c95e44"/>
                </g>
              </g>
              <g id="Group_283" data-name="Group 283" style="mix-blend-mode: multiply;isolation: isolate">
                <g id="Group_282" data-name="Group 282">
                  <line id="Line_13" data-name="Line 13" x1="7.473" y2="7.473" transform="translate(439.019 422.527)" fill="#ebc247"/>
                  <path id="Path_553" data-name="Path 553" d="M439.019,431.107a1.107,1.107,0,0,1-.783-1.89l7.472-7.473a1.107,1.107,0,1,1,1.566,1.565l-7.473,7.474a1.1,1.1,0,0,1-.782.324" fill="#c95e44"/>
                  <line id="Line_14" data-name="Line 14" x2="7.473" y2="7.473" transform="translate(439.02 422.527)" fill="#ebc247"/>
                  <path id="Path_554" data-name="Path 554" d="M446.492,431.107a1.106,1.106,0,0,1-.783-.324l-7.473-7.474a1.107,1.107,0,1,1,1.566-1.565l7.472,7.473a1.107,1.107,0,0,1-.782,1.89" fill="#c95e44"/>
                </g>
              </g>
              <g id="Group_285" data-name="Group 285" style="mix-blend-mode: multiply;isolation: isolate">
                <g id="Group_284" data-name="Group 284">
                  <line id="Line_15" data-name="Line 15" x1="7.473" y2="7.474" transform="translate(310.413 438.147)" fill="#ebc247"/>
                  <path id="Path_555" data-name="Path 555" d="M310.413,446.728a1.107,1.107,0,0,1-.783-1.891l7.473-7.472a1.107,1.107,0,1,1,1.566,1.566L311.2,446.4a1.106,1.106,0,0,1-.783.324" fill="#c95e44"/>
                  <line id="Line_16" data-name="Line 16" x2="7.473" y2="7.474" transform="translate(310.413 438.147)" fill="#ebc247"/>
                  <path id="Path_556" data-name="Path 556" d="M317.885,446.728a1.106,1.106,0,0,1-.783-.324l-7.472-7.473a1.107,1.107,0,1,1,1.565-1.566l7.473,7.472a1.107,1.107,0,0,1-.783,1.891" fill="#c95e44"/>
                </g>
              </g>
              <g id="Group_287" data-name="Group 287" style="mix-blend-mode: multiply;isolation: isolate">
                <g id="Group_286" data-name="Group 286">
                  <line id="Line_17" data-name="Line 17" x1="7.473" y2="7.474" transform="translate(330.233 438.147)" fill="#ebc247"/>
                  <path id="Path_557" data-name="Path 557" d="M330.232,446.728a1.107,1.107,0,0,1-.783-1.891l7.473-7.472a1.107,1.107,0,0,1,1.566,1.566l-7.473,7.473a1.106,1.106,0,0,1-.783.324" fill="#c95e44"/>
                  <line id="Line_18" data-name="Line 18" x2="7.473" y2="7.474" transform="translate(330.232 438.147)" fill="#ebc247"/>
                  <path id="Path_558" data-name="Path 558" d="M337.706,446.728a1.1,1.1,0,0,1-.783-.324l-7.473-7.473a1.107,1.107,0,0,1,1.566-1.566l7.473,7.472a1.107,1.107,0,0,1-.783,1.891" fill="#c95e44"/>
                </g>
              </g>
              <g id="Group_289" data-name="Group 289" style="mix-blend-mode: multiply;isolation: isolate">
                <g id="Group_288" data-name="Group 288">
                  <line id="Line_19" data-name="Line 19" x1="7.473" y2="7.474" transform="translate(350.052 438.147)" fill="#ebc247"/>
                  <path id="Path_559" data-name="Path 559" d="M350.052,446.728a1.107,1.107,0,0,1-.783-1.891l7.473-7.472a1.107,1.107,0,1,1,1.566,1.566l-7.473,7.473a1.106,1.106,0,0,1-.783.324" fill="#c95e44"/>
                  <line id="Line_20" data-name="Line 20" x2="7.473" y2="7.474" transform="translate(350.052 438.147)" fill="#ebc247"/>
                  <path id="Path_560" data-name="Path 560" d="M357.525,446.728a1.106,1.106,0,0,1-.783-.324l-7.473-7.473a1.107,1.107,0,0,1,1.566-1.566l7.473,7.472a1.107,1.107,0,0,1-.783,1.891" fill="#c95e44"/>
                </g>
              </g>
              <g id="Group_291" data-name="Group 291" style="mix-blend-mode: multiply;isolation: isolate">
                <g id="Group_290" data-name="Group 290">
                  <line id="Line_21" data-name="Line 21" x1="7.473" y2="7.474" transform="translate(369.873 438.147)" fill="#ebc247"/>
                  <path id="Path_561" data-name="Path 561" d="M369.872,446.728a1.107,1.107,0,0,1-.783-1.891l7.473-7.472a1.107,1.107,0,1,1,1.566,1.566l-7.473,7.473a1.106,1.106,0,0,1-.783.324" fill="#c95e44"/>
                  <line id="Line_22" data-name="Line 22" x2="7.473" y2="7.474" transform="translate(369.873 438.147)" fill="#ebc247"/>
                  <path id="Path_562" data-name="Path 562" d="M377.345,446.728a1.1,1.1,0,0,1-.782-.324l-7.473-7.473a1.107,1.107,0,0,1,1.565-1.566l7.473,7.472a1.107,1.107,0,0,1-.783,1.891" fill="#c95e44"/>
                </g>
              </g>
              <g id="Group_293" data-name="Group 293" style="mix-blend-mode: multiply;isolation: isolate">
                <g id="Group_292" data-name="Group 292">
                  <line id="Line_23" data-name="Line 23" x1="7.473" y2="7.474" transform="translate(389.692 438.147)" fill="#ebc247"/>
                  <path id="Path_563" data-name="Path 563" d="M389.692,446.728a1.107,1.107,0,0,1-.783-1.891l7.472-7.472a1.108,1.108,0,0,1,1.567,1.566l-7.474,7.473a1.1,1.1,0,0,1-.782.324" fill="#c95e44"/>
                  <line id="Line_24" data-name="Line 24" x2="7.473" y2="7.474" transform="translate(389.692 438.147)" fill="#ebc247"/>
                  <path id="Path_564" data-name="Path 564" d="M397.165,446.728a1.106,1.106,0,0,1-.783-.324l-7.473-7.473a1.107,1.107,0,0,1,1.566-1.566l7.473,7.472a1.107,1.107,0,0,1-.783,1.891" fill="#c95e44"/>
                </g>
              </g>
              <g id="Group_295" data-name="Group 295" style="mix-blend-mode: multiply;isolation: isolate">
                <g id="Group_294" data-name="Group 294">
                  <line id="Line_25" data-name="Line 25" x1="7.474" y2="7.474" transform="translate(409.511 438.147)" fill="#ebc247"/>
                  <path id="Path_565" data-name="Path 565" d="M409.512,446.728a1.107,1.107,0,0,1-.782-1.891l7.472-7.472a1.107,1.107,0,0,1,1.566,1.566L410.3,446.4a1.106,1.106,0,0,1-.783.324" fill="#c95e44"/>
                  <line id="Line_26" data-name="Line 26" x2="7.474" y2="7.474" transform="translate(409.512 438.147)" fill="#ebc247"/>
                  <path id="Path_566" data-name="Path 566" d="M416.985,446.728a1.1,1.1,0,0,1-.783-.324l-7.473-7.473a1.107,1.107,0,0,1,1.566-1.566l7.472,7.472a1.107,1.107,0,0,1-.782,1.891" fill="#c95e44"/>
                </g>
              </g>
              <g id="Group_297" data-name="Group 297" style="mix-blend-mode: multiply;isolation: isolate">
                <g id="Group_296" data-name="Group 296">
                  <line id="Line_27" data-name="Line 27" x1="7.473" y2="7.474" transform="translate(429.332 438.147)" fill="#ebc247"/>
                  <path id="Path_567" data-name="Path 567" d="M429.332,446.728a1.107,1.107,0,0,1-.783-1.891l7.473-7.472a1.107,1.107,0,0,1,1.566,1.566l-7.474,7.473a1.1,1.1,0,0,1-.782.324" fill="#c95e44"/>
                  <line id="Line_28" data-name="Line 28" x2="7.473" y2="7.474" transform="translate(429.332 438.147)" fill="#ebc247"/>
                  <path id="Path_568" data-name="Path 568" d="M436.8,446.728a1.1,1.1,0,0,1-.782-.324l-7.474-7.473a1.107,1.107,0,1,1,1.566-1.566l7.473,7.472a1.107,1.107,0,0,1-.783,1.891" fill="#c95e44"/>
                </g>
              </g>
              <g id="Group_299" data-name="Group 299" style="mix-blend-mode: multiply;isolation: isolate">
                <g id="Group_298" data-name="Group 298">
                  <line id="Line_29" data-name="Line 29" x1="7.473" y2="7.473" transform="translate(320.1 453.769)" fill="#ebc247"/>
                  <path id="Path_569" data-name="Path 569" d="M320.1,462.348a1.107,1.107,0,0,1-.783-1.89l7.473-7.472a1.107,1.107,0,0,1,1.566,1.565l-7.473,7.473a1.1,1.1,0,0,1-.783.324" fill="#c95e44"/>
                  <line id="Line_30" data-name="Line 30" x2="7.473" y2="7.473" transform="translate(320.1 453.769)" fill="#ebc247"/>
                  <path id="Path_570" data-name="Path 570" d="M327.573,462.348a1.1,1.1,0,0,1-.783-.324l-7.473-7.473a1.107,1.107,0,1,1,1.566-1.565l7.473,7.472a1.107,1.107,0,0,1-.783,1.89" fill="#c95e44"/>
                </g>
              </g>
              <g id="Group_301" data-name="Group 301" style="mix-blend-mode: multiply;isolation: isolate">
                <g id="Group_300" data-name="Group 300">
                  <line id="Line_31" data-name="Line 31" x1="7.473" y2="7.473" transform="translate(339.92 453.769)" fill="#ebc247"/>
                  <path id="Path_571" data-name="Path 571" d="M339.919,462.348a1.107,1.107,0,0,1-.783-1.89l7.473-7.472a1.107,1.107,0,0,1,1.566,1.565l-7.473,7.473a1.1,1.1,0,0,1-.783.324" fill="#c95e44"/>
                  <line id="Line_32" data-name="Line 32" x2="7.473" y2="7.473" transform="translate(339.92 453.769)" fill="#ebc247"/>
                  <path id="Path_572" data-name="Path 572" d="M347.393,462.348a1.1,1.1,0,0,1-.783-.324l-7.473-7.473a1.107,1.107,0,1,1,1.566-1.565l7.473,7.472a1.107,1.107,0,0,1-.783,1.89" fill="#c95e44"/>
                </g>
              </g>
              <g id="Group_303" data-name="Group 303" style="mix-blend-mode: multiply;isolation: isolate">
                <g id="Group_302" data-name="Group 302">
                  <line id="Line_33" data-name="Line 33" x1="7.473" y2="7.473" transform="translate(359.74 453.769)" fill="#ebc247"/>
                  <path id="Path_573" data-name="Path 573" d="M359.739,462.348a1.107,1.107,0,0,1-.783-1.89l7.473-7.472a1.107,1.107,0,0,1,1.566,1.565l-7.473,7.473a1.1,1.1,0,0,1-.783.324" fill="#c95e44"/>
                  <line id="Line_34" data-name="Line 34" x2="7.473" y2="7.473" transform="translate(359.74 453.769)" fill="#ebc247"/>
                  <path id="Path_574" data-name="Path 574" d="M367.212,462.348a1.1,1.1,0,0,1-.783-.324l-7.473-7.473a1.107,1.107,0,1,1,1.566-1.565l7.473,7.472a1.107,1.107,0,0,1-.783,1.89" fill="#c95e44"/>
                </g>
              </g>
              <g id="Group_305" data-name="Group 305" style="mix-blend-mode: multiply;isolation: isolate">
                <g id="Group_304" data-name="Group 304">
                  <line id="Line_35" data-name="Line 35" x1="7.473" y2="7.473" transform="translate(379.559 453.769)" fill="#ebc247"/>
                  <path id="Path_575" data-name="Path 575" d="M379.56,462.348a1.107,1.107,0,0,1-.783-1.89l7.473-7.472a1.107,1.107,0,0,1,1.566,1.565l-7.474,7.473a1.1,1.1,0,0,1-.782.324" fill="#c95e44"/>
                  <line id="Line_36" data-name="Line 36" x2="7.473" y2="7.473" transform="translate(379.56 453.769)" fill="#ebc247"/>
                  <path id="Path_576" data-name="Path 576" d="M387.032,462.348a1.1,1.1,0,0,1-.782-.324l-7.474-7.473a1.107,1.107,0,1,1,1.566-1.565l7.473,7.472a1.107,1.107,0,0,1-.783,1.89" fill="#c95e44"/>
                </g>
              </g>
              <g id="Group_307" data-name="Group 307" style="mix-blend-mode: multiply;isolation: isolate">
                <g id="Group_306" data-name="Group 306">
                  <line id="Line_37" data-name="Line 37" x1="7.473" y2="7.473" transform="translate(399.379 453.769)" fill="#ebc247"/>
                  <path id="Path_577" data-name="Path 577" d="M399.379,462.348a1.107,1.107,0,0,1-.782-1.89l7.472-7.472a1.107,1.107,0,0,1,1.566,1.565l-7.473,7.473a1.1,1.1,0,0,1-.783.324" fill="#c95e44"/>
                  <line id="Line_38" data-name="Line 38" x2="7.473" y2="7.473" transform="translate(399.38 453.769)" fill="#ebc247"/>
                  <path id="Path_578" data-name="Path 578" d="M406.852,462.348a1.1,1.1,0,0,1-.783-.324l-7.473-7.473a1.107,1.107,0,0,1,1.566-1.565l7.472,7.472a1.107,1.107,0,0,1-.782,1.89" fill="#c95e44"/>
                </g>
              </g>
              <g id="Group_309" data-name="Group 309" style="mix-blend-mode: multiply;isolation: isolate">
                <g id="Group_308" data-name="Group 308">
                  <line id="Line_39" data-name="Line 39" x1="7.474" y2="7.473" transform="translate(419.199 453.769)" fill="#ebc247"/>
                  <path id="Path_579" data-name="Path 579" d="M419.2,462.348a1.107,1.107,0,0,1-.783-1.89l7.473-7.472a1.107,1.107,0,0,1,1.566,1.565l-7.473,7.473a1.1,1.1,0,0,1-.783.324" fill="#c95e44"/>
                  <line id="Line_40" data-name="Line 40" x2="7.474" y2="7.473" transform="translate(419.199 453.769)" fill="#ebc247"/>
                  <path id="Path_580" data-name="Path 580" d="M426.672,462.348a1.1,1.1,0,0,1-.782-.324l-7.474-7.473a1.107,1.107,0,0,1,1.567-1.565l7.472,7.472a1.107,1.107,0,0,1-.783,1.89" fill="#c95e44"/>
                </g>
              </g>
              <g id="Group_311" data-name="Group 311" style="mix-blend-mode: multiply;isolation: isolate">
                <g id="Group_310" data-name="Group 310">
                  <line id="Line_41" data-name="Line 41" x1="7.473" y2="7.473" transform="translate(439.019 453.769)" fill="#ebc247"/>
                  <path id="Path_581" data-name="Path 581" d="M439.019,462.348a1.107,1.107,0,0,1-.783-1.89l7.472-7.472a1.107,1.107,0,1,1,1.566,1.565l-7.473,7.473a1.1,1.1,0,0,1-.782.324" fill="#c95e44"/>
                  <line id="Line_42" data-name="Line 42" x2="7.473" y2="7.473" transform="translate(439.02 453.769)" fill="#ebc247"/>
                  <path id="Path_582" data-name="Path 582" d="M446.492,462.348a1.1,1.1,0,0,1-.783-.324l-7.473-7.473a1.107,1.107,0,1,1,1.566-1.565l7.472,7.472a1.107,1.107,0,0,1-.782,1.89" fill="#c95e44"/>
                </g>
              </g>
            </g>
          </g>
        </g>
      </g>
      <g id="Group_331" data-name="Group 331">
        <g id="Group_322" data-name="Group 322">
          <g id="Group_318" data-name="Group 318">
            <g id="Group_316" data-name="Group 316">
              <path id="Path_584" data-name="Path 584" d="M410.322,314.851c-6.378,21.527-20.3,37.356-27.369,35.262s-7.629-21.243-1.251-42.771,17.278-37.281,24.348-35.186,10.65,21.168,4.272,42.7" fill="#fff"/>
              <path id="Path_585" data-name="Path 585" d="M406.05,272.155a5.166,5.166,0,0,0-3.049.106c6.878,2.519,10.279,21.354,3.988,42.589-5.539,18.7-16.765,33.087-24.254,35.179.074.025.144.062.218.083,7.07,2.1,20.992-13.734,27.369-35.262s2.8-40.6-4.272-42.7" fill="#ece5e0"/>
            </g>
            <g id="Group_317" data-name="Group 317">
              <path id="Path_586" data-name="Path 586" d="M384.525,348.893a.6.6,0,0,1-.175-.016c-.569-.14-2.787-2.3-3.256-10.261-.45-7.653.894-17.428,3.785-27.524,2.709-9.457,6.5-18.164,10.687-24.517,4.388-6.666,7.732-8.488,8.889-8.52a.591.591,0,0,1,.174.017c.569.14,2.787,2.3,3.255,10.261.451,7.653-.893,17.427-3.785,27.524-2.709,9.457-6.5,18.164-10.686,24.516-4.389,6.666-7.733,8.489-8.888,8.52" fill="#fc7453"/>
              <path id="Path_587" data-name="Path 587" d="M407.885,288.333c-.469-7.967-2.687-10.121-3.256-10.263a.649.649,0,0,0-.174-.015c-.6.016-1.8.526-3.424,1.942.885,1.02,2.239,3.718,2.593,9.741.451,7.653-.892,17.428-3.785,27.524-2.708,9.457-6.5,18.164-10.685,24.517a32.128,32.128,0,0,1-5.465,6.577,1.576,1.576,0,0,0,.662.521.6.6,0,0,0,.175.016c1.155-.032,4.5-1.854,8.887-8.52,4.183-6.352,7.978-15.06,10.687-24.517,2.891-10.1,4.235-19.871,3.785-27.523" fill="#fd643f"/>
            </g>
          </g>
          <g id="Group_321" data-name="Group 321">
            <g id="Group_319" data-name="Group 319">
              <path id="Path_588" data-name="Path 588" d="M343.237,314.851c6.378,21.527,20.3,37.356,27.369,35.262s7.629-21.243,1.252-42.771-17.279-37.281-24.349-35.186-10.649,21.168-4.272,42.7" fill="#fff"/>
              <path id="Path_589" data-name="Path 589" d="M347.51,272.155a5.166,5.166,0,0,1,3.049.106c-6.878,2.519-10.28,21.354-3.988,42.589,5.539,18.7,16.766,33.087,24.254,35.179-.073.025-.144.062-.219.083-7.069,2.1-20.991-13.734-27.368-35.262s-2.8-40.6,4.272-42.7" fill="#ece5e0"/>
            </g>
            <g id="Group_320" data-name="Group 320">
              <path id="Path_590" data-name="Path 590" d="M369.035,348.893a.605.605,0,0,0,.175-.016c.568-.14,2.786-2.3,3.255-10.261.45-7.653-.893-17.428-3.785-27.524-2.709-9.457-6.5-18.164-10.686-24.517-4.388-6.666-7.733-8.488-8.889-8.52a.587.587,0,0,0-.174.017c-.569.14-2.787,2.3-3.256,10.261-.45,7.653.894,17.427,3.785,27.524,2.709,9.457,6.5,18.164,10.686,24.516,4.389,6.666,7.734,8.489,8.889,8.52" fill="#fc7453"/>
              <path id="Path_591" data-name="Path 591" d="M345.675,288.333c.469-7.967,2.687-10.121,3.255-10.263a.658.658,0,0,1,.175-.015c.6.016,1.8.526,3.424,1.942-.886,1.02-2.239,3.718-2.594,9.741-.45,7.653.894,17.428,3.785,27.524,2.709,9.457,6.5,18.164,10.686,24.517a32.093,32.093,0,0,0,5.466,6.577,1.588,1.588,0,0,1-.662.521.61.61,0,0,1-.175.016c-1.155-.032-4.5-1.854-8.889-8.52-4.182-6.352-7.977-15.06-10.686-24.517-2.891-10.1-4.235-19.871-3.785-27.523" fill="#fd643f"/>
            </g>
          </g>
        </g>
        <g id="Group_323" data-name="Group 323">
          <path id="Path_592" data-name="Path 592" d="M416.931,365.7c0,18.708-17.977,33.874-40.15,33.874S336.629,384.4,336.629,365.7s17.976-33.874,40.152-33.874,40.15,15.166,40.15,33.874" fill="#fff"/>
          <path id="Path_593" data-name="Path 593" d="M376.78,393.707c-21,0-38.229-13.608-39.992-30.943a29.017,29.017,0,0,0-.159,2.931c0,18.708,17.976,33.874,40.151,33.874S416.93,384.4,416.93,365.7a29.017,29.017,0,0,0-.159-2.931c-1.762,17.335-18.988,30.943-39.991,30.943" fill="#ece5e0"/>
        </g>
        <g id="Group_330" data-name="Group 330">
          <g id="Group_325" data-name="Group 325">
            <g id="Group_324" data-name="Group 324">
              <path id="Path_594" data-name="Path 594" d="M376.592,371.331c-2.534-.072-5.826.859-5.123,2.652.829,1.86,3.557,4.207,5.123,4.207s4.294-2.347,5.122-4.207c.7-1.793-2.588-2.724-5.122-2.652" fill="#574a42"/>
              <path id="Path_595" data-name="Path 595" d="M376.324,372.98c.136.373-.474.839-1.362,1.042s-1.719.065-1.856-.307.473-.838,1.362-1.041,1.719-.065,1.856.306" fill="#fff"/>
            </g>
            <path id="Path_596" data-name="Path 596" d="M381.413,383.067l-2.031-1.185-1.62-1.67-1.17-2.855-.8,2.328-2.221,2.2-2.792.891c.542,2.072,2.935,3.635,5.808,3.635,2.734,0,5.029-1.417,5.712-3.341Z" fill="#fc7453"/>
            <path id="Path_597" data-name="Path 597" d="M369.861,383.651a7.34,7.34,0,0,1-7.331-7.331.6.6,0,1,1,1.2,0,6.13,6.13,0,1,0,12.26,0,.6.6,0,1,1,1.2,0,7.34,7.34,0,0,1-7.331,7.331" fill="#574a42"/>
            <path id="Path_598" data-name="Path 598" d="M383.322,383.651a7.34,7.34,0,0,1-7.331-7.331.6.6,0,1,1,1.2,0,6.13,6.13,0,1,0,12.26,0,.6.6,0,1,1,1.2,0,7.339,7.339,0,0,1-7.331,7.331" fill="#574a42"/>
            <path id="Path_599" data-name="Path 599" d="M364.656,375.986c0,.413-.638.748-1.425.748s-1.426-.335-1.426-.748.638-.747,1.426-.747,1.425.335,1.425.747" fill="#574a42"/>
            <path id="Path_600" data-name="Path 600" d="M391.754,375.986c0,.413-.638.748-1.425.748s-1.426-.335-1.426-.748.639-.747,1.426-.747,1.425.335,1.425.747" fill="#574a42"/>
          </g>
          <g id="Group_326" data-name="Group 326">
            <path id="Path_601" data-name="Path 601" d="M356.812,375.145c0,1.682-1.99,3.046-4.446,3.046s-4.445-1.364-4.445-3.046,1.99-3.048,4.445-3.048,4.446,1.365,4.446,3.048" fill="#fc7453"/>
            <path id="Path_602" data-name="Path 602" d="M407.582,375.145c0,1.682-1.99,3.046-4.445,3.046s-4.446-1.364-4.446-3.046,1.991-3.048,4.446-3.048,4.445,1.365,4.445,3.048" fill="#fc7453"/>
          </g>
          <g id="Group_329" data-name="Group 329">
            <g id="Group_327" data-name="Group 327">
              <path id="Path_603" data-name="Path 603" d="M363.853,365.284a5.557,5.557,0,1,1-5.557-5.557,5.558,5.558,0,0,1,5.557,5.557" fill="#574a42"/>
              <path id="Path_604" data-name="Path 604" d="M355.88,364.113a1.583,1.583,0,1,1,1.583,1.582,1.583,1.583,0,0,1-1.583-1.582" fill="#fff"/>
            </g>
            <g id="Group_328" data-name="Group 328">
              <path id="Path_605" data-name="Path 605" d="M389.33,365.284a5.557,5.557,0,1,0,5.557-5.557,5.557,5.557,0,0,0-5.557,5.557" fill="#574a42"/>
              <path id="Path_606" data-name="Path 606" d="M397.3,364.113a1.583,1.583,0,1,0-1.582,1.582,1.583,1.583,0,0,0,1.582-1.582" fill="#fff"/>
            </g>
          </g>
        </g>
      </g>
      <g id="Group_334" data-name="Group 334">
        <g id="Group_332" data-name="Group 332">
          <path id="Path_607" data-name="Path 607" d="M349.724,407.236c-6.275.937-11.9-1.891-12.558-6.314s3.891-8.771,10.166-9.707,11.9,1.89,12.557,6.314-3.891,8.77-10.165,9.707" fill="#fff"/>
          <path id="Path_608" data-name="Path 608" d="M349.724,407.236a15.725,15.725,0,0,0,3.783-1.059,15.948,15.948,0,0,1-1.965.426c-6.275.938-11.9-1.89-12.557-6.314-.518-3.469,2.175-6.881,6.382-8.649-5.228,1.458-8.789,5.335-8.2,9.282.661,4.423,6.283,7.251,12.558,6.314" fill="#ece5e0"/>
        </g>
        <g id="Group_333" data-name="Group 333">
          <path id="Path_609" data-name="Path 609" d="M402.058,407.236c6.275.937,11.9-1.891,12.558-6.314s-3.891-8.771-10.165-9.707-11.9,1.89-12.558,6.314,3.891,8.77,10.165,9.707" fill="#fff"/>
          <path id="Path_610" data-name="Path 610" d="M402.058,407.236a15.739,15.739,0,0,1-3.783-1.059,15.949,15.949,0,0,0,1.965.426c6.275.938,11.9-1.89,12.557-6.314.518-3.469-2.175-6.881-6.382-8.649,5.228,1.458,8.789,5.335,8.2,9.282-.661,4.423-6.283,7.251-12.558,6.314" fill="#ece5e0"/>
        </g>
      </g>
    </g>
  </g>
</svg>
