<svg xmlns="http://www.w3.org/2000/svg" width="786" height="569.628" viewBox="0 0 786 569.628">
  <g id="ICP_Bunny_Logo" data-name="ICP_Bunny Logo" transform="translate(-640 -240.372)">
    <g id="Group_22" data-name="Group 22" transform="translate(911.033 240.372)">
      <g id="Group_8" data-name="Group 8" transform="translate(0)">
        <g id="Group_1" data-name="Group 1" transform="translate(168.184)">
          <path id="Path_1" data-name="Path 1" d="M276.941,396.747s37.014-89.5,49.086-172.534S266,123.639,256.322,176.105s27.153,135.227-2.442,215.2Z" transform="translate(-253.88 -146.372)" fill="#f2efe8"/>
          <path id="Path_2" data-name="Path 2" d="M261.689,345.427c-5.185-.812,8.676-68.274-.166-119.739s8.294-70.482,24.445-66.7c19.162,4.486,22.338,48.748,5.532,108.66S268.421,346.476,261.689,345.427Z" transform="translate(-243.612 -122.525)" fill="#fd643f"/>
        </g>
        <g id="Group_2" data-name="Group 2" transform="translate(98.34 361.868)">
          <path id="Path_3" data-name="Path 3" d="M274.46,271.06S203.246,381.7,241.7,422.154s114.394,9.076,102.924-72.022c-4.341-30.715-27.248-81.631-27.248-81.631Z" transform="translate(-230.308 -268.5)" fill="#f2efe8"/>
          <path id="Path_4" data-name="Path 4" d="M308.728,297.831c-6.273-16.584-12.009-29.331-12.009-29.331L253.8,271.06s-5.68,8.83-12.966,22.4c11.031,1.2,21.9,3.407,32.27,4.527C285.11,298.477,296.962,298.228,308.728,297.831Z" transform="translate(-209.648 -268.5)" fill="#dac9b7"/>
        </g>
        <g id="Group_3" data-name="Group 3" transform="translate(0 54.972)">
          <path id="Path_5" data-name="Path 5" d="M349.664,356.553s-13.911-146.7-50.529-181.728-84.464,31.918-96.334,61.192-6.643,68.105,30.075,60.991S290.1,245.072,290.1,245.072s34.253,63.761,42.17,114.479Z" transform="translate(-197.119 -164.925)" fill="#f2efe8"/>
          <path id="Path_6" data-name="Path 6" d="M233.12,180.71a103.019,103.019,0,0,1-4.619,33.376,215.032,215.032,0,0,1,12.11,19.686c3.461,6.279,7.257,13.772,10.854,22.143,6.679,15.583,12.673,38.389,21.233,37.924C284.111,293.216,260.718,203.718,233.12,180.71Z" transform="translate(-135.516 -133.938)" fill="#fd643f"/>
          <path id="Path_7" data-name="Path 7" d="M233.12,180.71a103.019,103.019,0,0,1-4.619,33.376s5.194,9.674,11.994,24.457C241.8,204.518,233.12,180.71,233.12,180.71Z" transform="translate(-135.516 -133.938)" fill="#dac9b7" style="mix-blend-mode: multiply;isolation: isolate"/>
          <path id="Path_8" data-name="Path 8" d="M202.8,236c-9.061,22.341-8.139,50.226,9.114,59.026,6.4-47.263,36.276-97.629,69.776-129.618C248.7,159.417,212.848,211.211,202.8,236Z" transform="translate(-197.114 -164.91)" fill="#f7f5f0"/>
        </g>
        <g id="Group_7" data-name="Group 7" transform="translate(60.421 243.661)">
          <path id="Path_9" data-name="Path 9" d="M390.241,252.34c28.848,29.135,30.759,83.5-15.378,106.064s-149.052,13.562-156.148-40,18.2-74.968,49.394-84.55C298.352,224.555,364.013,225.841,390.241,252.34Z" transform="translate(-217.511 -228.606)" fill="#f2efe8"/>
          <path id="Path_10" data-name="Path 10" d="M274.458,229.81c-2.249.513-4.379,1.073-6.35,1.677-31.189,9.582-56.493,30.975-49.394,84.55,2.85,21.523,21.186,35.838,45.079,43.811C232.881,321.29,244.653,266.863,274.458,229.81Z" transform="translate(-217.511 -226.243)" fill="#f7f5f0"/>
          <g id="Group_6" data-name="Group 6" transform="translate(23.036 52.056)">
            <g id="Group_4" data-name="Group 4" transform="translate(0 14.964)">
              <path id="Path_11" data-name="Path 11" d="M271.637,256.805c5.016-2.729,11.464-3.7,18.581-2.8a15.028,15.028,0,0,1,10.765,6.939,12.727,12.727,0,0,1,1.39,11.022c-1.493,4.326-5.84,7.908-11.627,9.585a29.633,29.633,0,0,1-6.1,1.123c-4.572.35-11.1-.3-16.237-5.348a12.51,12.51,0,0,1-3.745-10.7A13.283,13.283,0,0,1,271.637,256.805Z" transform="translate(-148.222 -246.408)" fill="#e57755"/>
              <path id="Path_12" data-name="Path 12" d="M228.088,255.7c2.939-3.8,8.51-5.2,16.46-4.122,6.931.948,12.993,5.514,15.085,11.372a10.41,10.41,0,0,1-.246,8.353c-1.6,3.262-5.141,5.917-9.965,7.488a16.043,16.043,0,0,1-3.63.708c-7.375.56-15.5-3.787-18.916-10.119A12.01,12.01,0,0,1,228.088,255.7Z" transform="translate(-225.285 -251.225)" fill="#e57755"/>
            </g>
            <path id="Path_13" data-name="Path 13" d="M242.063,260.83c.975,5.239,1.994,10.608,6.249,14.228,3.437,2.925,8.356,3.15,12.427,1.68,8.394-3.04,9.224-13.846,9.778-21.343a.739.739,0,0,1,1.2-.507.793.793,0,0,1,.779.856c-.919,9.92,5.167,16.377,14.178,19.443,4.237,1.437,8.815,1.511,12.587-1.093,3.289-2.27,5-6.453,6.406-10.033a.785.785,0,0,1,1.449.6c-3.6,9.168-9.422,14.889-19.769,12.335-8.148-2-14.226-7.488-15.971-14.969-1.161,7.393-3.92,14.525-11.95,16.765a14.164,14.164,0,0,1-12.06-2.495c-4.747-3.422-5.858-9.914-6.853-15.265C240.326,260.044,241.885,259.837,242.063,260.83Z" transform="translate(-195.428 -229.352)" fill="#fd643f"/>
            <g id="Group_5" data-name="Group 5" transform="translate(37.128)">
              <path id="Path_14" data-name="Path 14" d="M266.98,248.346a3.633,3.633,0,0,1,2.676-1.363,4.71,4.71,0,0,1,2.981.794,3.783,3.783,0,0,1,1.653,2.841c.267,3.612.436,7.144-.536,10.575a4.26,4.26,0,0,1-3.867,3.082,3.888,3.888,0,0,1-2.913-.916,3.743,3.743,0,0,1-1.191-2.726,25.006,25.006,0,0,0-.37-3.019C264.9,254.408,264.319,250.772,266.98,248.346Z" transform="translate(-184.503 -244.614)" fill="#1d3b46"/>
              <path id="Path_15" data-name="Path 15" d="M239.831,247.551a3.6,3.6,0,0,1,2.664-1.363,4.7,4.7,0,0,1,2.987.794,3.746,3.746,0,0,1,1.644,2.842c.276,3.609.441,7.138-.533,10.584a4.273,4.273,0,0,1-3.861,3.076,3.946,3.946,0,0,1-2.916-.919,3.76,3.76,0,0,1-1.2-2.726,24.755,24.755,0,0,0-.364-3.016C237.739,253.607,237.156,249.977,239.831,247.551Z" transform="translate(-237.816 -246.175)" fill="#1d3b46"/>
            </g>
            <path id="Path_16" data-name="Path 16" d="M248.077,252.77c.29-.539,1.013-.868,2.317-1.037,4.27-.578,15.473.486,17.349,2.773a1.512,1.512,0,0,1,.11,1.591c-1.081,2.726-8.415,9.031-10.9,9.369a1.853,1.853,0,0,1-.492.012c-2.1-.285-6.134-5.965-7.642-8.966C247.633,254.133,247.8,253.262,248.077,252.77Z" transform="translate(-180.939 -235.568)" fill="#1d3b46"/>
          </g>
        </g>
      </g>
    </g>
    <text id="ICPBunny" transform="translate(640 763)" fill="#60d3a0" font-size="187" font-family="SegoeUI, Segoe UI"><tspan x="0" y="0">ICP</tspan><tspan y="0" fill="#fd643f">Bunny</tspan></text>
    <g id="hand" transform="translate(994.371 616.96)">
      <g id="Group_17" data-name="Group 17" transform="translate(0 0)">
        <path id="Path_61" data-name="Path 61" d="M221.679,298.482c2.9,16.593,34.661,12.865,38.347-6.447S217.75,276.028,221.679,298.482Z" transform="translate(-221.441 -279.386)" fill="#f2efe8"/>
        <g id="Group_16" data-name="Group 16" transform="translate(14.053 16.833)">
          <g id="Group_14" data-name="Group 14" transform="translate(0 0.966)">
            <path id="Path_62" data-name="Path 62" d="M226.186,286.337c-.027,2.836.145,5.381,1.668,7.846.593.972,2.018-.08,1.428-1.046-1.336-2.166-1.354-4.516-1.339-6.981.006-1.138-1.748-.942-1.757.181Z" transform="translate(-226.183 -285.393)" fill="#dac9b7"/>
          </g>
          <g id="Group_15" data-name="Group 15" transform="translate(8.888)">
            <path id="Path_63" data-name="Path 63" d="M229.7,285.774c-.427,2.441-.984,5.247.187,7.579.51,1,2.172.382,1.65-.64-1.031-2.044-.468-4.5-.086-6.64a.889.889,0,0,0-1.751-.3Z" transform="translate(-229.183 -285.068)" fill="#dac9b7"/>
          </g>
        </g>
      </g>
      <g id="Group_21" data-name="Group 21" transform="translate(90.433 9.45)">
        <path id="Path_64" data-name="Path 64" d="M305.647,297.361c-2.216,16.7-34.1,14.282-38.585-4.859S308.652,274.768,305.647,297.361Z" transform="translate(-266.757 -279.194)" fill="#f2efe8"/>
        <g id="Group_20" data-name="Group 20" transform="translate(13.87 16.897)">
          <g id="Group_18" data-name="Group 18" transform="translate(8.265 0.585)">
            <path id="Path_65" data-name="Path 65" d="M277.163,286c.139,2.836.068,5.381-1.342,7.9-.551,1-2.027.006-1.47-.984,1.247-2.216,1.162-4.572,1.046-7.025-.053-1.144,1.713-1.022,1.766.107Z" transform="translate(-274.227 -285.094)" fill="#dac9b7"/>
          </g>
          <g id="Group_19" data-name="Group 19">
            <path id="Path_66" data-name="Path 66" d="M273.2,285.571c.527,2.418,1.194,5.209.121,7.577-.456,1.028-2.151.474-1.671-.575.948-2.077.281-4.5-.187-6.637a.888.888,0,0,1,1.736-.365Z" transform="translate(-271.438 -284.896)" fill="#dac9b7"/>
          </g>
        </g>
      </g>
    </g>
  </g>
</svg>
