<svg xmlns="http://www.w3.org/2000/svg" xmlns:xlink="http://www.w3.org/1999/xlink" width="88" height="96" viewBox="0 0 88 96"><defs><style>.a{fill:none;}.b{clip-path:url(#a);}.c{fill:#fff;}</style><clipPath id="a"><rect class="a" width="88" height="96"/></clipPath></defs><g class="b"><g transform="translate(-1821 -375)"><circle class="c" cx="3.5" cy="3.5" r="3.5" transform="translate(1821 375)"/></g><g transform="translate(-1806 -375)"><circle class="c" cx="3.5" cy="3.5" r="3.5" transform="translate(1821 375)"/></g><g transform="translate(-1791 -375)"><circle class="c" cx="3.5" cy="3.5" r="3.5" transform="translate(1821 375)"/></g><g transform="translate(-1776 -375)"><circle class="c" cx="3.5" cy="3.5" r="3.5" transform="translate(1821 375)"/></g><g transform="translate(-1761 -375)"><circle class="c" cx="3.5" cy="3.5" r="3.5" transform="translate(1821 375)"/></g><g transform="translate(-1746 -375)"><circle class="c" cx="3.5" cy="3.5" r="3.5" transform="translate(1821 375)"/></g><g transform="translate(-1821 -358)"><circle class="c" cx="3.5" cy="3.5" r="3.5" transform="translate(1821 375)"/></g><g transform="translate(-1806 -358)"><circle class="c" cx="3.5" cy="3.5" r="3.5" transform="translate(1821 375)"/></g><g transform="translate(-1791 -358)"><circle class="c" cx="3.5" cy="3.5" r="3.5" transform="translate(1821 375)"/></g><g transform="translate(-1776 -358)"><circle class="c" cx="3.5" cy="3.5" r="3.5" transform="translate(1821 375)"/></g><g transform="translate(-1761 -358)"><circle class="c" cx="3.5" cy="3.5" r="3.5" transform="translate(1821 375)"/></g><g transform="translate(-1746 -358)"><circle class="c" cx="3.5" cy="3.5" r="3.5" transform="translate(1821 375)"/></g><g transform="translate(-1821 -341)"><circle class="c" cx="3.5" cy="3.5" r="3.5" transform="translate(1821 375)"/></g><g transform="translate(-1806 -341)"><circle class="c" cx="3.5" cy="3.5" r="3.5" transform="translate(1821 375)"/></g><g transform="translate(-1791 -341)"><circle class="c" cx="3.5" cy="3.5" r="3.5" transform="translate(1821 375)"/></g><g transform="translate(-1776 -341)"><circle class="c" cx="3.5" cy="3.5" r="3.5" transform="translate(1821 375)"/></g><g transform="translate(-1761 -341)"><circle class="c" cx="3.5" cy="3.5" r="3.5" transform="translate(1821 375)"/></g><g transform="translate(-1746 -341)"><circle class="c" cx="3.5" cy="3.5" r="3.5" transform="translate(1821 375)"/></g><g transform="translate(-1821 -324)"><circle class="c" cx="3.5" cy="3.5" r="3.5" transform="translate(1821 375)"/></g><g transform="translate(-1806 -324)"><circle class="c" cx="3.5" cy="3.5" r="3.5" transform="translate(1821 375)"/></g><g transform="translate(-1791 -324)"><circle class="c" cx="3.5" cy="3.5" r="3.5" transform="translate(1821 375)"/></g><g transform="translate(-1776 -324)"><circle class="c" cx="3.5" cy="3.5" r="3.5" transform="translate(1821 375)"/></g><g transform="translate(-1761 -324)"><circle class="c" cx="3.5" cy="3.5" r="3.5" transform="translate(1821 375)"/></g><g transform="translate(-1746 -324)"><circle class="c" cx="3.5" cy="3.5" r="3.5" transform="translate(1821 375)"/></g><g transform="translate(-1821 -307)"><circle class="c" cx="3.5" cy="3.5" r="3.5" transform="translate(1821 375)"/></g><g transform="translate(-1806 -307)"><circle class="c" cx="3.5" cy="3.5" r="3.5" transform="translate(1821 375)"/></g><g transform="translate(-1791 -307)"><circle class="c" cx="3.5" cy="3.5" r="3.5" transform="translate(1821 375)"/></g><g transform="translate(-1776 -307)"><circle class="c" cx="3.5" cy="3.5" r="3.5" transform="translate(1821 375)"/></g><g transform="translate(-1761 -307)"><circle class="c" cx="3.5" cy="3.5" r="3.5" transform="translate(1821 375)"/></g><g transform="translate(-1746 -307)"><circle class="c" cx="3.5" cy="3.5" r="3.5" transform="translate(1821 375)"/></g><g transform="translate(-1821 -290)"><circle class="c" cx="3.5" cy="3.5" r="3.5" transform="translate(1821 375)"/></g><g transform="translate(-1806 -290)"><circle class="c" cx="3.5" cy="3.5" r="3.5" transform="translate(1821 375)"/></g><g transform="translate(-1791 -290)"><circle class="c" cx="3.5" cy="3.5" r="3.5" transform="translate(1821 375)"/></g><g transform="translate(-1776 -290)"><circle class="c" cx="3.5" cy="3.5" r="3.5" transform="translate(1821 375)"/></g><g transform="translate(-1761 -290)"><circle class="c" cx="3.5" cy="3.5" r="3.5" transform="translate(1821 375)"/></g><g transform="translate(-1746 -290)"><circle class="c" cx="3.5" cy="3.5" r="3.5" transform="translate(1821 375)"/></g></g></svg>